<svg width="58" height="58" viewBox="0 0 58 58" fill="none" xmlns="http://www.w3.org/2000/svg">
<g clip-path="url(#clip0_6202_22264)">
<rect x="1" y="5.47656" width="51.3422" height="51.3422" rx="13.2325" transform="rotate(-5 1 5.47656)" fill="#F7841F"/>
<path d="M9.65262 16.3221C8.15419 21.058 2.29287 22.9581 -0.450494 23.3162L-2.12661 4.15808L54.1932 -1.92046C54.6717 2.1997 55.7845 13.0299 56.4075 23.3893C43.4494 22.0435 41.4447 17.3484 38.8292 13.7694C23.462 16.2651 22.4471 11.7491 19.6294 8.89622C17.4071 11.8358 11.8914 15.5949 9.65262 16.3221Z" fill="#556EF0"/>
<path d="M22.4284 7.62003C22.4283 7.69973 22.4279 7.77593 22.4293 7.83248C22.2654 7.92297 22.0979 7.99253 21.9603 8.1002C21.7698 8.24971 21.5837 8.38996 21.35 8.47239C21.1352 8.54786 21.1014 8.66771 21.2266 8.86397C21.3314 9.02837 21.4431 9.19216 21.5741 9.33302C22.3088 10.1189 23.0984 10.845 23.9509 11.5001C24.2529 11.7322 24.6024 11.9018 24.9186 12.115C25.31 12.3783 25.7622 12.5265 26.1514 12.8041C26.3743 12.9635 26.6698 13.0209 26.9335 13.12C27.4465 13.316 27.9467 13.5875 28.4773 13.681C29.0224 13.7768 29.5406 14.0325 30.1113 13.9755C30.4817 14.1202 30.8963 14.0007 31.2631 14.1652C31.7138 14.0531 32.1707 14.2151 32.6211 14.1402C32.7363 14.1213 32.8741 13.9959 32.9499 14.0318C33.0754 14.0899 33.1855 14.0926 33.3087 14.0836C33.4528 14.071 33.6092 14.0166 33.7367 14.0568C33.8897 14.1054 33.9457 13.8951 34.1067 13.9748C34.1825 14.0107 34.3175 13.9139 34.4271 13.8919C34.563 13.8659 34.7068 13.8905 34.8145 13.7642C34.8451 13.7296 34.938 13.7392 35.0005 13.7443C35.3055 13.769 35.5748 13.6286 35.8619 13.5698C36.1421 13.5134 36.4282 13.4636 36.6766 13.3072C36.6883 13.2991 36.7079 13.301 36.7241 13.3031C36.8603 13.3213 36.9893 13.2374 37.1417 13.3197C37.1975 13.3502 37.3449 13.1921 37.4612 13.1447C37.5725 13.1013 37.6985 13.1452 37.8072 13.0312C37.8933 12.9422 38.0923 13.0506 38.1864 12.8918C38.1941 12.8787 38.2921 12.925 38.3492 12.9307C38.4027 12.9348 38.4984 12.9353 38.5053 12.9135C38.5983 12.6397 38.9309 12.8178 39.0603 12.617C39.0666 12.6076 39.1435 12.6362 39.1808 12.6578C39.2906 12.719 39.3757 12.6992 39.4766 12.6177C39.7362 12.4073 40.0869 12.3872 40.3655 12.2105C40.5084 12.3061 40.6332 12.173 40.7649 12.1809C40.9323 12.1911 41.0472 12.0677 41.1957 12.044C41.2691 12.0323 41.364 12.024 41.4218 12.0579C41.5637 12.1411 41.6859 12.1003 41.8175 12.0463C41.9014 12.0124 41.9897 11.9693 42.0747 11.9689C42.2571 11.9689 42.4477 11.8601 42.6241 11.9935C42.7828 11.9052 42.9401 11.7993 43.1155 11.9629C43.2616 11.7092 43.4415 12.0247 43.6123 11.9318C43.7729 11.8451 43.9445 11.9435 44.1038 11.9827C44.2758 12.0261 44.4565 12.0669 44.606 12.1566C44.8061 12.2772 44.9614 12.4531 44.9752 12.7123C44.9829 12.8409 44.9975 12.9671 45.0089 13.0972C44.8549 13.1797 44.672 13.2347 44.5512 13.3515C44.4238 13.4743 44.3567 13.659 44.2548 13.8309C44.0098 13.7425 43.7867 13.6628 43.5635 13.5814C43.3983 13.7978 43.2056 13.5791 43.0221 13.6075C42.5485 13.6808 42.0642 13.6913 41.5873 13.7472C41.3927 13.7695 41.2037 13.8764 41.0126 13.879C40.8269 13.881 40.6679 14.0278 40.4792 13.9557C40.3581 14.131 40.1469 14.0043 40.0147 14.092C40.2944 14.4749 40.5707 14.8598 40.8536 15.2389C41.034 15.4799 41.2246 15.7147 41.4168 15.9476C41.5238 16.0782 41.6424 16.1989 41.7559 16.3218C41.8812 16.4578 42.0453 16.5727 42.123 16.7324C42.2071 16.9039 42.3417 17.0055 42.4787 17.0927C42.6175 17.1815 42.622 17.4149 42.8354 17.4051C43.0882 17.8045 43.4853 18.0514 43.8442 18.3281C44.4082 18.7623 44.9831 19.199 45.6074 19.534C46.4586 19.9909 47.3291 20.4266 48.2594 20.7153C48.5417 20.804 48.8183 20.9091 49.1049 20.9867C49.3752 21.0605 49.6444 21.1609 49.8901 21.2971C50.024 21.3703 50.0645 21.1454 50.2025 21.2644C50.2907 21.3417 50.4561 21.329 50.5876 21.3547C50.7048 21.3781 50.8234 21.3978 50.9388 21.4214C51.0398 21.4426 51.1455 21.4564 51.2425 21.4922C51.4713 21.5767 51.7027 21.6096 51.9446 21.6415C52.3228 21.6935 52.6915 21.7781 53.0756 21.7356C53.1636 21.8501 53.2909 21.8071 53.384 21.7777C53.5942 21.7115 53.7875 21.7956 53.9754 21.8376C54.3061 21.9131 54.6422 21.928 54.9693 21.9224C55.4486 21.9141 55.9238 21.8602 56.393 21.9998C56.4638 22.0201 56.5825 22.0204 56.6267 21.9793C56.888 21.7262 57.0687 21.9707 57.2702 22.047L57.4092 23.6359C57.137 23.7022 56.8824 23.728 56.6405 23.5738C56.6161 23.5583 56.5694 23.5305 56.563 23.5381C56.4213 23.6798 56.2669 23.6154 56.1129 23.5757C55.9926 23.7598 55.7814 23.734 55.6369 23.7024C55.144 23.595 54.628 23.7499 54.1469 23.5547C53.6657 23.6818 53.2027 23.4106 52.7239 23.4844C52.682 23.4916 52.633 23.4781 52.5925 23.4604C52.4952 23.4211 52.4025 23.3743 52.3083 23.3294C52.2139 23.2828 52.1578 23.5321 52.0491 23.3627C51.8013 23.3844 51.5794 23.3383 51.3422 23.2386C51.1289 23.1492 50.8512 23.2338 50.6162 23.1799C50.3976 23.13 50.1997 23.034 49.9576 23.041C49.7599 23.0476 49.5706 22.9083 49.3605 22.8754C49.1127 22.8368 48.8705 22.7606 48.63 22.6842C48.4187 22.6177 48.2112 22.5331 48.004 22.4521C47.9489 22.4303 47.8918 22.3645 47.8448 22.3739C47.5817 22.4235 47.3754 22.2715 47.1585 22.1807C46.912 22.0765 46.6082 22.0854 46.4272 21.8391C46.029 21.8013 45.7234 21.527 45.3503 21.4126C45.2119 21.3698 44.9869 21.3488 44.9318 21.1234C44.9203 21.073 44.838 21.0023 44.7904 21.0047C44.5025 21.0139 44.3121 20.8216 44.098 20.6827C43.8896 20.5469 43.6907 20.3995 43.4854 20.2599C43.3197 20.1469 43.1445 20.0471 42.9869 19.9263C42.7022 19.7085 42.5192 19.3579 42.1222 19.2935C41.9279 19.0767 41.7337 18.8617 41.5378 18.6468C41.4966 18.6008 41.452 18.5569 41.4041 18.515C41.1275 18.2683 40.7919 18.0762 40.6513 17.7042C40.2119 17.3991 40.0071 16.8998 39.6667 16.5116C39.3303 16.1284 39.035 15.7079 38.7383 15.2929C38.5849 15.0778 38.4664 14.8367 38.3228 14.5925C37.9756 14.7734 37.5622 14.7653 37.2235 14.9827C36.8682 14.9305 36.5658 15.2793 36.1959 15.1204C36.1775 15.1131 36.1403 15.1128 36.1309 15.1261C35.8952 15.4283 35.4803 15.3424 35.1956 15.5497C35.1407 15.5899 34.9996 15.496 34.8984 15.4925C34.6476 15.4808 34.4412 15.6919 34.1806 15.6491C33.9077 15.8696 33.5726 15.7643 33.2691 15.8174C33.1888 15.8315 33.1012 15.8215 33.0117 15.8311C32.8051 15.858 32.5831 15.9731 32.3664 15.8238C32.3154 15.7875 32.2101 15.8392 32.1344 15.8246C31.994 15.7979 31.9014 15.9743 31.7263 15.8763C31.6238 15.8179 31.4468 15.9007 31.3031 15.8973C31.1381 15.8941 30.9704 15.8397 30.8087 15.8538C30.647 15.868 30.5088 15.8269 30.3589 15.794C30.1658 15.7524 29.974 15.686 29.7681 15.7412C29.6435 15.7751 29.5242 15.7678 29.4208 15.6582C29.3778 15.6124 29.2821 15.6119 29.2087 15.6024C28.8235 15.5528 28.4194 15.59 28.0799 15.3328C28.0288 15.2947 27.9306 15.3263 27.8551 15.3135C27.5601 15.2613 27.2876 15.1435 27.0091 15.0368C26.7325 14.9317 26.45 14.8413 26.1818 14.7107C26.1282 14.6853 26.0525 14.6901 26.0155 14.6526C25.8794 14.514 25.7142 14.447 25.5262 14.4245C25.4368 14.4146 25.3426 14.4104 25.2633 14.3748C25.208 14.3496 25.1871 14.2522 25.1314 14.2234C24.9329 14.1204 24.7223 14.0414 24.5236 13.9366C24.2024 13.7663 23.8668 13.615 23.5771 13.4013C22.9407 12.9292 22.3039 12.4518 21.714 11.9243C21.0165 11.2999 20.3791 10.6136 19.8173 9.86042C19.7993 9.83719 19.7914 9.80777 19.7784 9.78057C19.4966 9.96108 19.4235 10.3801 19.0047 10.431C19.0076 10.5051 19.0107 10.581 19.0138 10.6569C18.9887 10.6732 18.9657 10.6947 18.9402 10.7058C18.8718 10.7348 18.7693 10.7367 18.7365 10.7874C18.6299 10.9455 18.6079 11.1794 18.3302 11.163C18.3053 11.1616 18.2916 11.3098 18.2426 11.3566C18.0323 11.5645 17.9187 11.8649 17.6278 12.0019C17.5922 12.0192 17.6085 12.1453 17.5965 12.2508C17.3333 12.2385 17.2129 12.4615 17.0821 12.6465C16.9103 12.89 16.9235 12.8995 16.6445 12.9487C16.5331 13.1125 16.6002 13.3936 16.3177 13.4448C16.2494 13.635 16.1468 13.7786 15.9602 13.8923C15.8257 13.9749 15.6958 14.089 15.5648 14.1908C15.4552 14.2748 15.3773 14.3967 15.2819 14.5007C15.0942 14.7031 14.8291 14.7901 14.6126 14.9471C14.516 15.0176 14.4177 15.0882 14.3252 15.1653C14.2444 15.2326 14.1774 15.3182 14.092 15.3735C14.0065 15.4288 13.8633 15.4324 13.8147 15.504C13.7272 15.6374 13.5822 15.5792 13.4859 15.6532C13.4145 15.7072 13.3203 15.7438 13.2713 15.8119C13.1941 15.9213 13.1306 15.9039 13.021 15.8657C12.959 15.8445 12.8405 15.908 12.7855 15.9677C12.6659 16.0986 12.5642 16.2315 12.3533 16.2092C12.2943 16.2037 12.2076 16.2645 12.1662 16.3177C12.037 16.4813 11.9006 16.3799 11.7444 16.3351C11.6948 16.4156 11.6434 16.4962 11.6061 16.5562C11.4602 16.5689 11.3474 16.5753 11.237 16.5885C11.1461 16.6017 11.0057 16.5963 10.9748 16.6486C10.8918 16.7922 10.7208 16.8214 10.6496 16.9994C10.4794 17.4234 10.232 17.8134 9.94686 18.1784C9.83376 18.3229 9.73052 18.479 9.64738 18.6421C9.56424 18.8052 9.34241 18.8406 9.30835 19.0384C8.96588 19.2738 8.78115 19.6725 8.45243 19.9031C8.25884 20.0387 8.20343 20.3163 7.9375 20.3538C7.65066 20.7189 7.23511 20.9288 6.88288 21.2147C6.54715 21.4867 6.18595 21.7308 5.80731 21.9375C5.39139 22.1634 4.96943 22.381 4.54509 22.5917C4.10204 22.8111 3.62829 22.9429 3.1886 23.1602C3.02555 23.24 2.84045 23.2296 2.66465 23.3052C2.37782 23.4277 2.0395 23.4272 1.71122 23.4807L1.5573 21.7213C1.56532 21.7118 1.58265 21.6873 1.58632 21.6887C1.61246 21.7041 1.64061 21.7424 1.65963 21.7372C1.84157 21.6912 2.02305 21.6399 2.20421 21.5851C2.46469 21.5056 2.70718 21.3622 2.99247 21.3638C3.09869 21.3633 3.2014 21.3632 3.28961 21.2581C3.365 21.1682 3.49647 21.0717 3.60285 21.0731C3.75508 21.0721 3.82266 20.9741 3.92748 20.9171C4.04399 20.852 4.23023 20.8552 4.29125 20.7631C4.4807 20.4791 4.86201 20.5662 5.06608 20.3074C5.24127 20.0831 5.57812 20.0466 5.7494 19.7978C5.98916 19.8459 6.04517 19.5346 6.26465 19.5331C6.30011 19.5336 6.36558 19.4924 6.36695 19.4675C6.38064 19.1989 6.64173 19.1264 6.79223 19.0247C7.14013 18.7906 7.33044 18.3949 7.7071 18.2061C7.68571 17.9211 8.01471 17.9366 8.11059 17.7369C8.20037 17.5484 8.35122 17.39 8.4799 17.2211C8.49578 17.2002 8.5346 17.1986 8.62194 17.1644C8.49688 17.1116 8.41401 17.0551 8.32459 17.0452C8.21553 17.0335 8.1003 17.0524 7.99034 17.0709C7.75651 17.1108 7.53133 17.0473 7.30245 17.0425C7.0825 17.0387 6.87548 17.0409 6.69016 16.9066C6.58611 16.8307 6.51464 17.0866 6.38211 16.9282C6.32866 16.8638 6.18759 16.8708 6.08655 16.8496C5.96923 16.8244 5.85076 16.8064 5.73535 16.7829C5.63431 16.7616 5.53281 16.7351 5.43016 16.7157C5.39952 16.7096 5.36254 16.7323 5.33495 16.7205C5.14225 16.6435 5.03499 16.4297 4.75454 16.4631C4.57748 16.4839 4.37021 16.3214 4.18637 16.2242C3.96155 16.1039 3.78192 15.8929 3.4929 15.9094C3.32019 15.9191 3.39076 15.6934 3.21718 15.6324C2.94866 15.539 2.71454 15.3328 2.48579 15.1473C2.27806 14.9796 2.06781 14.8031 1.85635 14.6534C1.4994 14.3995 1.25931 14.0238 0.857457 13.8234C0.787244 13.4257 0.884555 13.0399 0.866697 12.6536C0.85253 12.3095 1.00962 11.9593 1.10104 11.5669C1.24633 11.7296 1.38061 11.8878 1.52291 12.0366C1.70612 12.2278 1.88597 12.421 2.08537 12.5948C2.45932 12.9216 2.84626 13.2349 3.22502 13.556C3.67466 13.9382 4.19753 14.2059 4.68779 14.5261C4.78358 14.5886 4.95155 14.4233 4.99614 14.6497C5.00649 14.7072 5.19649 14.7331 5.30564 14.766C5.41845 14.8004 5.54478 14.8071 5.64699 14.8619C5.84758 14.9683 6.05939 15.0614 6.2756 15.0832C6.5327 15.1068 6.7431 15.2849 7.0292 15.2351C7.25424 15.196 7.5 15.3126 7.73249 15.3383C8.01336 15.3704 8.30547 15.2882 8.5935 15.2807C8.77386 15.2773 8.95599 15.1728 9.14658 15.3067C9.20316 15.346 9.35708 15.2227 9.47232 15.2038C9.5631 15.1888 9.66278 15.235 9.75593 15.2268C9.84381 15.2191 9.928 15.1692 10.0151 15.1528C10.5677 15.0513 11.1147 14.9273 11.6291 14.6928C11.7518 14.6378 11.9144 14.6342 12.0008 14.5487C12.1344 14.4165 12.3367 14.5423 12.4639 14.3558C12.5517 14.226 12.7816 14.2023 12.9192 14.0946C13.0502 13.9928 13.2417 14.0151 13.3463 13.8341C13.3925 13.7557 13.6067 13.7741 13.7652 13.7443C13.7708 13.6659 13.7771 13.5768 13.7839 13.4717L14.2233 13.4333L14.2027 13.1977C14.4792 13.0177 14.7444 12.851 15.0019 12.6762C15.0537 12.6416 15.1108 12.5852 15.1219 12.5293C15.1828 12.2548 15.508 12.2671 15.6204 12.0536C15.8041 12.0889 15.8115 11.9093 15.9026 11.8376C16.1529 11.6421 16.2577 11.3213 16.5391 11.1567C16.6165 11.111 16.7076 11.018 16.7165 10.9375C16.7411 10.7335 16.8729 10.7219 17.0251 10.659C17.1465 10.6095 17.0283 10.3311 17.2078 10.2782C17.3893 10.2269 17.3238 10.0042 17.4841 9.95473C17.6445 9.90528 17.7314 9.78433 17.772 9.62138C17.7798 9.58882 17.8249 9.5583 17.8603 9.5375C18.1087 9.40065 18.1087 9.40065 18.142 9.13384C18.2453 9.11949 18.352 9.10484 18.4028 9.09862C18.5392 8.91667 18.6347 8.75246 18.7635 8.62607C18.9137 8.4801 19.0989 8.37003 19.257 8.23399C19.3097 8.18865 19.3398 8.10808 19.3656 8.03852C19.4162 7.90835 19.4957 7.82524 19.6422 7.83899C19.7528 7.84879 19.8535 7.80457 19.8718 7.71087C19.9149 7.49457 20.0473 7.4086 20.2461 7.37349C20.2637 7.37196 20.2673 7.29194 20.2826 7.22331L20.6622 7.19009C20.6972 7.14453 20.7271 7.12242 20.7303 7.09736C20.7654 6.81091 20.7626 6.79876 20.9982 6.75866C21.1029 6.74065 21.1728 6.70974 21.2328 6.62656C21.3987 6.39774 21.6576 6.36092 21.9036 6.27742C22.1256 6.20309 22.443 6.22845 22.4899 5.87367C22.4963 5.8253 22.5694 5.74983 22.617 5.74743C23.0248 5.71176 23.3153 5.3888 23.6868 5.30316C24.0446 5.22227 24.3778 5.08331 24.7229 4.97874C25.0505 4.87746 25.3812 4.79009 25.7286 4.79334C25.8664 4.64845 26.0226 4.71272 26.1768 4.75413C26.3309 4.79555 26.465 4.76965 26.6281 4.73059C27.0965 4.61876 27.5814 4.65427 28.0612 4.73449C28.4153 4.79384 28.7826 4.78119 29.1029 4.97987C29.5356 4.8446 29.8726 5.25611 30.2938 5.19093C30.5443 5.36206 30.8523 5.40064 31.1156 5.53523C31.2639 5.61081 31.4112 5.67584 31.5653 5.73675C31.7598 5.8136 32.0004 5.81027 32.1284 6.01868C32.4409 6.04801 32.6694 6.27066 32.9447 6.38117C33.0916 6.44093 33.2094 6.53159 33.3211 6.65464C33.58 6.94193 33.5933 6.93191 33.4915 7.28618C33.4808 7.32608 33.4648 7.38593 33.4374 7.39717C33.0678 7.52515 32.9182 7.88005 32.6629 8.12023C31.9377 7.90739 31.3121 7.45737 30.5914 7.2158C30.0293 7.02588 29.476 6.81571 28.9181 6.61302C28.9034 6.60722 28.8925 6.58339 28.8819 6.58431C28.5442 6.61032 28.2279 6.49807 27.9024 6.44154C27.7081 6.40717 27.5088 6.39627 27.3123 6.39752C27.1211 6.39831 26.9248 6.46154 26.7383 6.43535C26.5446 6.40802 26.3744 6.44593 26.192 6.48669C25.9906 6.53265 25.7742 6.50907 25.5726 6.55327C25.3432 6.60345 25.1387 6.79668 24.8807 6.62089C24.8524 6.60035 24.9034 6.79955 24.751 6.8182C24.5881 6.83953 24.4182 6.88097 24.2742 6.95556C24.0623 7.06442 23.7995 7.03605 23.6219 7.25349C23.5404 7.35448 23.3593 7.4093 23.2167 7.41999C23.0215 7.43531 22.8435 7.4863 22.7188 7.61941C22.6021 7.74297 22.5353 7.60713 22.4312 7.61093L22.4284 7.62003Z" fill="black"/>
<g clip-path="url(#clip1_6202_22264)">
<path d="M24.2656 33.0661C24.2215 32.8858 24.2584 32.6806 24.0484 32.568C24.0188 32.5528 23.9959 32.4539 24.0011 32.4517C24.1433 32.3772 23.9702 32.2808 24.0203 32.2056C24.2658 31.8334 24.6575 31.6752 25.1014 31.7692C25.1592 31.7818 25.2193 31.8014 25.2775 31.798C25.4927 31.7881 25.6985 31.7718 25.9195 31.8287C26.1189 31.8803 26.3498 31.7467 26.5564 31.881C26.5675 31.8871 26.5882 31.88 26.6038 31.8768C27.15 31.783 27.7027 31.9472 28.2486 31.8303C29.038 31.6621 29.8574 31.6152 30.5973 31.2458C31.243 31.1964 31.7721 30.7658 32.41 30.6888C32.4626 30.6824 32.5067 30.6201 32.5616 30.5993C32.7911 30.5102 33.0234 30.5944 33.1702 30.8153C33.2111 30.8772 33.2404 30.9491 33.291 31.0013C33.3688 31.0813 33.4614 31.1476 33.5474 31.2197C33.4639 31.3174 33.3821 31.4149 33.2857 31.5278L33.3386 32.1324C33.1353 32.2175 32.9507 32.3346 32.7519 32.3697C32.4189 32.4307 32.1605 32.696 31.8348 32.7174C31.5406 32.736 31.3134 32.9118 31.0265 32.9528C30.7379 32.994 30.4694 33.1645 30.164 33.216C30.0225 33.239 29.8813 33.3859 29.7347 33.3297C29.5808 33.2706 29.5316 33.4785 29.3646 33.4117C29.2563 33.368 29.0905 33.4764 28.9492 33.5011C28.8079 33.5259 28.6628 33.528 28.5187 33.5406L28.0406 33.5824C27.8965 33.595 27.7535 33.6199 27.6097 33.6166C27.5086 33.6148 27.4056 33.5512 27.307 33.558C27.226 33.5633 27.13 33.6798 27.0698 33.6603C26.6684 33.5254 26.2578 33.5489 25.8484 33.5457C25.7597 33.5446 25.665 33.4945 25.5835 33.514C25.3613 33.5653 25.1434 33.5242 24.9463 33.4582C24.7073 33.3781 24.4023 33.3942 24.2673 33.066L24.2656 33.0661Z" fill="black"/>
<path d="M25.4841 25.981C25.5196 26.2046 25.3585 26.3674 25.3286 26.5525C25.2966 26.7536 25.2855 26.9299 25.0796 27.0259C24.9057 27.4272 24.4769 27.4647 24.1555 27.6381C23.753 27.8557 23.7286 27.8189 23.3413 27.5428C23.2921 27.5064 23.2205 27.4365 23.1899 27.4516C22.944 27.5563 22.8735 27.3376 22.7554 27.2221C22.6373 27.1067 22.4277 27.0595 22.4435 26.835C22.1958 26.676 22.223 26.3796 22.1286 26.1506C22.0682 26.0071 22.1243 25.7985 22.1717 25.6314C22.2938 25.1851 22.5986 24.8626 22.9532 24.5836C23.2486 24.6003 23.503 24.2486 23.8247 24.4844C23.9828 24.3891 24.1615 24.609 24.316 24.452C24.5624 24.535 24.8002 24.6222 24.977 24.8405C25.1518 25.0572 25.2237 25.313 25.3251 25.561C25.3815 25.6995 25.431 25.8404 25.4841 25.981Z" fill="black"/>
<path d="M34.3321 24.1668C34.4835 24.359 34.6048 24.5308 34.6853 24.7222C34.9404 25.3303 35.0123 25.9298 34.5804 26.4989C34.5632 26.7483 34.2912 26.7154 34.1693 26.8607C34.0955 26.9486 33.9242 26.9548 33.7953 26.9997C33.749 27.0162 33.4395 27.0415 33.3964 27.0346C33.2634 27.0126 33.1291 26.996 32.9959 26.9722C32.8933 26.9529 32.786 26.941 32.6938 26.8995C32.6126 26.8623 32.5538 26.7771 32.4738 26.7328C32.3976 26.6916 32.2966 26.6916 32.2234 26.6449C32.1465 26.5949 32.159 26.4344 32.0052 26.4585C31.9982 26.4591 31.9901 26.3057 31.948 26.2492C31.6861 25.8878 31.7374 25.5025 31.852 25.1117C31.878 25.0244 32.0723 24.7152 32.1339 24.6496C32.2583 24.513 32.3719 24.3737 32.5323 24.2641C32.7079 24.146 32.8806 24.0955 33.0833 24.0636C33.4064 24.0123 33.535 24.024 33.913 24.1539C34.039 24.1978 34.1902 24.1651 34.3322 24.1686L34.3321 24.1668Z" fill="black"/>
</g>
<g clip-path="url(#clip2_6202_22264)">
<path d="M30.8246 42.717C15.027 43.5323 5.36971 50.0211 2.51573 53.1635L3.08468 59.6667L58.7135 54.7998L59.1793 46.9663C56.31 45.2101 46.6221 41.9016 30.8246 42.717Z" fill="#F23540"/>
<path d="M30.7797 43.5463C30.7893 43.657 30.7632 43.7833 30.8141 43.839C30.9061 43.939 30.923 43.9907 30.849 44.1158C30.8009 44.1944 30.8111 44.3511 30.8592 44.4355C31.0345 44.7389 30.9914 45.0757 31.0302 45.3981C31.0761 45.7802 31.0938 46.1648 31.1361 46.5472C31.1527 46.6963 31.1069 46.8614 31.2593 46.9845C31.385 47.085 31.0601 47.1772 31.2317 47.3163C31.3386 47.4044 31.3527 47.5253 31.2496 47.6424C31.2336 47.6615 31.2254 47.71 31.2376 47.7284C31.4706 48.0835 31.3686 48.4963 31.427 48.8808C31.4864 49.2759 31.4968 49.6787 31.5405 50.077C31.5571 50.226 31.5014 50.3992 31.6604 50.5163C31.687 50.537 31.6686 50.6095 31.6863 50.6504C31.7543 50.8198 31.5118 50.9632 31.6826 51.175C31.7921 51.3124 31.7577 51.5669 31.7825 51.7702C31.8046 51.9613 31.8161 52.1534 31.8328 52.3449L31.8872 52.9671C31.904 53.1587 31.9208 53.3503 31.9375 53.5419C31.9858 54.154 32.1825 54.7425 32.2012 55.3607C32.2203 55.9842 32.303 56.6057 32.3576 57.2297C32.3617 57.2772 32.3478 57.3404 32.3734 57.37C32.5215 57.5448 32.5371 57.7223 32.4195 57.9168C32.3669 58.0046 32.5787 58.0162 32.4797 58.14C32.3936 58.2485 32.288 58.2364 32.1826 58.2457C31.7064 58.2891 31.2282 58.3292 30.7009 58.3753C30.7253 58.2492 30.7488 58.1533 30.7635 58.0581C30.7723 57.9971 30.7986 57.9134 30.769 57.8788C30.5823 57.6471 30.6534 57.3664 30.613 57.1078C30.584 56.9173 30.6317 56.6935 30.5458 56.5416C30.441 56.356 30.5661 56.2069 30.5298 56.0347C30.4939 55.8679 30.3938 55.7154 30.3889 55.5582C30.3794 55.2669 30.2355 54.9784 30.3858 54.673C30.428 54.5878 30.2899 54.4263 30.2731 54.295C30.2286 53.9287 30.2141 53.5598 30.1679 53.1937C30.1424 52.9834 30.2084 52.7456 30.0229 52.5688C30.0055 52.5526 30.0027 52.4997 30.0147 52.4757C30.1475 52.232 29.9361 52.0221 29.9457 51.7874C29.9549 51.5493 29.9109 51.3087 29.89 51.0697L29.8229 50.3034C29.8117 50.1751 29.8041 50.0482 29.7894 49.9202C29.7763 49.8116 29.7904 49.6686 29.7266 49.6069C29.6353 49.5157 29.7949 49.376 29.642 49.3292C29.6561 49.1455 29.5406 48.959 29.6682 48.7779C29.687 48.7496 29.6815 48.6669 29.6592 48.6547C29.5358 48.5805 29.5952 48.4495 29.55 48.3578C29.4783 48.2065 29.6505 48.0692 29.5293 47.8992C29.4487 47.7875 29.488 47.5893 29.4741 47.4293C29.4587 47.2536 29.4433 47.0778 29.4279 46.9021L29.3902 46.4714C29.3776 46.3273 29.3721 46.1826 29.3508 46.041C29.331 45.9152 29.2324 45.7609 29.2765 45.6773C29.3675 45.5029 29.2769 45.4187 29.1977 45.3034C29.1815 45.2801 29.2261 45.223 29.2311 45.1783C29.2427 45.0887 29.2812 44.9826 29.2483 44.9094C29.0737 44.5137 29.1087 44.0839 29.0408 43.6718C28.7672 43.7223 28.5123 43.7641 28.2621 43.8197C28.0068 43.8774 27.7177 43.7716 27.491 43.9739C27.3792 43.8101 27.2572 43.9944 27.1573 43.9659C27.023 43.9281 26.962 44.0609 26.8384 44.0452C26.6987 44.0273 26.5511 44.0614 26.4073 44.0776C26.2704 44.0913 26.1196 44.0691 26.0237 44.2068C25.8283 44.0591 25.6651 44.1974 25.4779 44.2439C25.0705 44.3451 24.649 44.3855 24.236 44.4623C24.1209 44.483 23.9673 44.6098 23.9091 44.5724C23.7531 44.4692 23.6666 44.6149 23.5484 44.6199C23.4284 44.6251 23.2929 44.5944 23.204 44.7315C23.1821 44.7653 23.0842 44.7597 23.0219 44.7563C22.9418 44.7509 22.8544 44.7037 22.7834 44.7223C22.702 44.7436 22.6361 44.8202 22.5609 44.871C22.5375 44.8872 22.4952 44.9104 22.4783 44.8995C22.1992 44.745 21.9547 44.9666 21.6969 44.9962C21.4655 45.0235 21.2085 45.1222 20.9702 45.2121C20.6409 45.3348 20.2714 45.3423 19.9221 45.4189C19.4913 45.515 19.059 45.6149 18.6381 45.7438C18.3329 45.8378 18.0322 45.9438 17.7175 45.9908C17.52 46.0205 17.3244 46.0323 17.1407 46.1387C16.8425 46.3135 16.467 46.272 16.1765 46.4338C15.9552 46.5559 15.7078 46.5226 15.4895 46.6586C15.3065 46.7738 15.0527 46.7871 14.8272 46.821C14.7206 46.8374 14.6513 46.8754 14.5946 46.9565C14.5757 46.983 14.5372 47.0288 14.5353 47.0272C14.2018 46.7783 14.0672 47.2648 13.7546 47.2337C13.4936 47.2069 13.25 47.4992 12.9432 47.4747C12.5444 47.7132 12.0876 47.817 11.6667 48.0061C11.2866 48.1757 10.8894 48.3114 10.5004 48.4606C10.4575 48.4767 10.408 48.4775 10.371 48.5002C10.3038 48.5415 10.1961 48.6466 10.1845 48.6352C10.0751 48.5385 10.0668 48.7075 10.0055 48.6952C9.85405 48.6641 9.87825 48.9206 9.6861 48.8701C9.60088 48.8475 9.47677 48.9876 9.36446 49.0399C9.24366 49.0965 9.11208 49.1311 8.99144 49.1895C8.87256 49.2477 8.76256 49.3264 8.6462 49.3932C8.5316 49.4599 8.41588 49.5745 8.29751 49.5778C8.04318 49.5859 7.89747 49.7828 7.69255 49.8698C7.48924 49.9549 7.30842 50.0947 7.11414 50.202C7.02292 50.2525 6.92504 50.2877 6.82731 50.3246C6.78445 50.3407 6.72078 50.3215 6.68938 50.3472C6.55082 50.4639 6.49828 50.6934 6.25318 50.6652C6.15475 50.8155 5.95278 50.835 5.85035 50.9396C5.54995 51.251 5.1469 51.4014 4.80003 51.708C4.49795 51.15 4.30607 50.5965 4.18379 50.0086C4.52444 49.7928 4.7771 49.5227 5.15325 49.3889C5.44689 49.2835 5.68962 49.0214 5.96625 48.8431C6.35526 48.593 6.76615 48.3906 7.17023 48.171C7.56086 47.9597 7.97788 47.7869 8.35705 47.566C8.81032 47.3014 9.3092 47.1533 9.76944 46.9075C10.2092 46.6707 10.6868 46.4819 11.1566 46.3045C11.6863 46.104 12.1993 45.8342 12.74 45.6984C13.2426 45.5729 13.6841 45.2739 14.2105 45.2385C14.3902 45.0864 14.6289 45.0815 14.836 44.9996C15.1424 44.8772 15.4704 44.8006 15.7906 44.7159C16.1732 44.6152 16.5611 44.5139 16.9316 44.3965C17.2987 44.2811 17.6851 44.2031 18.0469 44.0474C18.2773 43.9476 18.556 43.9746 18.8117 43.8814C19.1805 43.7446 19.5841 43.7217 19.9601 43.5861C20.2468 43.483 20.564 43.4642 20.8664 43.3987C21.0437 43.3602 21.2172 43.299 21.3943 43.2587C21.5715 43.2184 21.7773 43.2836 21.9239 43.1167C21.9383 43.0995 21.9854 43.1113 22.0169 43.1068C22.4008 43.0413 22.7951 43.0139 23.1623 42.8986C23.5276 42.7834 23.9268 42.8317 24.2584 42.6946C24.5935 42.5573 24.9692 42.6608 25.2795 42.4423C25.3695 42.3778 25.5309 42.4204 25.6565 42.3987C25.9776 42.3441 26.323 42.4254 26.6149 42.2193C26.745 42.1282 26.8725 42.3101 27.0262 42.2045C27.1298 42.1335 27.3048 42.1695 27.4443 42.1449C27.5925 42.1178 27.7603 42.1739 27.8853 42.0231C27.9222 41.9791 28.0426 41.9792 28.1149 41.9959C28.321 42.0434 28.51 41.9773 28.7077 41.9494C29.2782 41.8711 29.8795 41.9212 30.4237 41.7656C30.9698 41.6098 31.517 41.6292 32.0595 41.5552C32.63 41.4769 33.2078 41.4405 33.7837 41.4043C34.0109 41.3898 34.2579 41.4797 34.467 41.4207C34.6901 41.3587 34.8977 41.4238 35.112 41.3838C35.3316 41.3433 35.558 41.3394 35.7812 41.3199C36.0203 41.299 36.2721 41.222 36.4976 41.2696C36.9613 41.3672 37.4054 41.2398 37.8585 41.2373C38.071 41.2365 38.2858 41.2619 38.4977 41.2753C38.7115 41.2902 38.9332 41.1522 39.1386 41.3131C39.1575 41.3274 39.2001 41.3077 39.2319 41.3067C39.6846 41.299 40.1369 41.286 40.5904 41.287C40.7392 41.2882 40.8877 41.3248 41.0378 41.34C41.1717 41.353 41.316 41.2607 41.4444 41.3929C41.4718 41.4224 41.5709 41.4014 41.6294 41.3821C41.8808 41.2999 42.1154 41.4511 42.366 41.4204C42.6096 41.3902 42.8418 41.4744 43.0781 41.5228C43.1972 41.5478 43.3284 41.5097 43.4532 41.5183C43.5709 41.5275 43.6881 41.5721 43.8057 41.5795C44.1814 41.6033 44.5545 41.6362 44.921 41.737C45.1224 41.792 45.3419 41.7905 45.5486 41.8043C46.0171 41.8359 46.475 41.9269 46.9264 42.0256C47.0636 42.0561 47.196 42.0303 47.3305 42.0699C47.5866 42.1431 47.8464 42.2178 48.1087 42.2604C48.3766 42.306 48.6415 42.3378 48.876 42.4873C49.6231 42.4839 50.2706 42.9214 51.0034 42.9777C51.3258 43.2205 51.7373 43.2075 52.0957 43.3568C52.546 43.5441 53.0329 43.6432 53.4832 43.8305C53.9777 44.0369 54.4968 44.181 54.976 44.4154C55.6217 44.7308 56.2922 44.9856 56.9352 45.3102C57.4966 45.594 58.0522 45.8908 58.6138 46.1764C58.7657 46.2534 58.8981 46.3693 59.0697 46.4889C58.9413 47.0864 58.8128 47.6821 58.6776 48.3032C58.5019 48.1769 58.3519 47.981 58.186 47.9672C57.9217 47.9425 57.8097 47.7149 57.5855 47.6425C57.396 47.5811 57.2492 47.3814 57.0196 47.3679C56.4877 46.9575 55.8608 46.7148 55.2582 46.4469C54.9966 46.3317 54.7387 46.1771 54.4234 46.1356C54.1422 46.1 53.8814 45.8926 53.6159 45.7529C53.4692 45.6754 53.321 45.6211 53.1578 45.5769C52.9766 45.5308 52.7471 45.5597 52.6202 45.3636C52.2876 45.2864 51.974 45.1438 51.6459 45.0574C51.4247 44.9988 51.2308 44.8883 51.02 44.827C50.8202 44.7701 50.6148 44.7509 50.4124 44.6836C50.1024 44.5814 49.7971 44.4328 49.4847 44.384C49.1561 44.333 48.8453 44.2416 48.5252 44.1668C47.9757 44.0396 47.4146 43.9629 46.8844 43.7525C46.7027 43.6798 46.5029 43.7646 46.2982 43.6922C45.9786 43.582 45.6214 43.6487 45.2874 43.4955C45.1011 43.4108 44.8414 43.5186 44.6052 43.4507C44.4052 43.392 44.1438 43.4804 43.9778 43.3851C43.7651 43.2621 43.5617 43.3861 43.3481 43.2932C43.1253 43.1958 42.836 43.2495 42.5777 43.2331C42.396 43.2207 42.2131 43.1747 42.034 43.1921C41.8529 43.208 41.6969 43.165 41.5535 43.0854C41.4662 43.0381 41.46 43.1095 41.4149 43.1206C41.3109 43.1456 41.1961 43.1698 41.095 43.1485C40.7973 43.086 40.4981 43.0467 40.1924 43.0539C40.0652 43.058 39.9217 42.9962 39.8154 43.0373C39.6921 43.0853 39.6062 43.1353 39.4798 43.0472C39.3665 42.9668 39.1959 43.1216 39.0839 42.9756C38.9888 43.1238 38.8416 42.9189 38.7947 42.9903C38.6948 43.1442 38.6147 42.9972 38.5305 43.0063C37.9987 43.0617 37.4641 42.9437 36.9311 43.0453C36.8073 43.0685 36.605 42.9622 36.5532 43.0181C36.4158 43.1683 36.293 42.9789 36.235 43.0247C36.0793 43.1481 35.9117 42.9733 35.787 43.0657C35.6174 43.1921 35.4558 43.0256 35.2807 43.0887C35.1193 43.1471 34.9317 43.1281 34.7577 43.1433C34.5837 43.1586 34.4063 43.1758 34.2304 43.1895C34.1054 43.1986 33.9081 43.2513 33.8678 43.1946C33.7628 43.0479 33.6782 43.3352 33.6114 43.1799C33.6068 43.1679 33.5883 43.1588 33.5753 43.1511C33.409 43.0523 33.3299 43.3834 33.1107 43.2254C33.001 43.1465 32.7583 43.1854 32.606 43.2466C32.4452 43.312 32.3114 43.3414 32.1533 43.2755C32.0208 43.2181 31.9652 43.5134 31.7856 43.3431C31.6832 43.2458 31.5561 43.3313 31.4637 43.4297C31.4475 43.4471 31.4012 43.4441 31.3706 43.4379C31.2717 43.4217 31.1686 43.3759 31.0743 43.3912C30.9763 43.4051 30.8869 43.4767 30.7698 43.5347L30.7797 43.5463Z" fill="black"/>
</g>
</g>
<rect x="0.0443018" y="4.67464" width="53.1066" height="53.1066" rx="14.1147" transform="rotate(-5 0.0443018 4.67464)" stroke="black" stroke-width="1.76434"/>
<defs>
<clipPath id="clip0_6202_22264">
<rect x="1" y="5.47656" width="51.3422" height="51.3422" rx="13.2325" transform="rotate(-5 1 5.47656)" fill="white"/>
</clipPath>
<clipPath id="clip1_6202_22264">
<rect width="12.7844" height="9.53801" fill="white" transform="translate(21.9727 24.543) rotate(-5)"/>
</clipPath>
<clipPath id="clip2_6202_22264">
<rect width="54.9856" height="16.6483" fill="white" transform="translate(3.66406 44.0312) rotate(-5)"/>
</clipPath>
</defs>
</svg>
