<svg width="57" height="57" viewBox="0 0 57 57" fill="none" xmlns="http://www.w3.org/2000/svg">
<g clip-path="url(#clip0_6202_22254)">
<rect x="4.59375" y="1.01172" width="51.3422" height="51.3422" rx="13.2325" transform="rotate(4 4.59375 1.01172)" fill="#FFBB00"/>
<path d="M8.97337 11.7504C6.18389 9.15001 1.93362 8.7231 0.157166 8.8347L-1.17091 -5.05357L36.5555 -3.29981L60.7862 1.755C60.9191 6.59859 60.6922 16.2513 58.721 16.1135C56.2569 15.9412 50.4943 12.3546 47.6167 13.0378C41.7631 15.812 35.8072 17.5179 31.9684 14.2428C28.1295 10.9676 22.5097 10.3977 18.8296 12.4396C15.1495 14.4815 12.4602 15.001 8.97337 11.7504Z" fill="#F7841F"/>
<path d="M-0.177589 11.0561C-0.121651 10.6355 -0.0974913 10.3153 -0.0200383 9.99174C0.0546701 9.68214 0.12144 9.35961 0.180148 9.02591C0.495207 8.97189 0.790389 8.82274 1.11032 8.7496C1.23435 8.72113 1.34924 8.72209 1.46889 8.7057C1.58665 8.69094 1.70503 8.66738 1.81874 8.63466C2.09316 8.5548 2.3728 8.60265 2.64819 8.58477C2.82768 8.57256 3.04259 8.45848 3.18276 8.55317C3.35339 8.66769 3.5022 8.48708 3.67422 8.60699C3.81075 8.70321 4.0342 8.66931 4.21716 8.70863C4.87945 8.84868 5.5141 9.08054 6.14437 9.32447C6.28572 9.5289 6.49745 9.5614 6.72233 9.55767C6.83666 9.76905 7.09244 9.75334 7.25304 9.88483C7.5123 10.0975 7.80138 10.238 8.1217 10.3364C8.2291 10.3687 8.30722 10.4909 8.41089 10.5512C8.62842 10.6779 8.87919 10.7591 9.06987 10.9157C9.27225 11.0819 9.47672 11.2182 9.71947 11.313C9.85544 11.3668 9.98416 11.4483 10.1075 11.5312C10.3931 11.721 10.6995 11.8662 11.0115 12.0083C11.3046 12.142 11.5638 12.3546 11.8745 12.4648C12.0574 12.5306 12.2382 12.5999 12.4256 12.6519C12.6303 12.7087 12.86 12.7123 13.0444 12.8066C13.1606 12.866 13.2657 12.9052 13.3889 12.9138C13.7884 12.9417 14.188 12.9697 14.5875 12.9976C14.8087 12.8433 15.0806 12.9012 15.3249 12.8228C15.721 12.6966 16.1227 12.5921 16.5011 12.4169C16.7589 12.297 17.0558 12.2488 17.2622 12.0297C17.6323 12.022 17.8923 11.6935 18.281 11.6995C18.4383 11.7016 18.6012 11.5468 18.7547 11.4514C18.9247 11.3466 19.0837 11.2233 19.2522 11.1148C19.2874 11.0925 19.3568 11.1115 19.3799 11.0848C19.5106 10.9348 19.7148 11.1259 19.861 10.9575C19.9475 10.8592 20.1399 10.8638 20.2637 10.7876C20.5245 10.6254 20.8285 10.6024 21.1033 10.4925C21.4381 10.3585 21.7922 10.3019 22.1459 10.2524C22.5692 10.1936 22.9877 10.076 23.4232 10.1454C23.698 9.95944 24.0053 10.1684 24.2881 10.0697C24.5855 9.9649 24.8897 10.041 25.1784 10.0859C25.6104 10.1551 26.0563 10.1774 26.4718 10.2807C27.0628 10.4282 27.6462 10.6335 28.2269 10.828C28.5829 10.9466 28.9162 11.1131 29.2662 11.242C29.6094 11.3668 29.9025 11.6278 30.2408 11.7717C30.696 11.9645 31.0344 12.3614 31.5287 12.4755C31.7496 12.7067 32.0229 12.8691 32.2886 13.0416C32.6015 13.2456 32.8984 13.4768 33.2113 13.6809C33.597 13.9325 33.9863 14.1826 34.386 14.4104C34.9558 14.735 35.547 15.0062 36.1812 15.1938C36.6109 15.3212 37.0338 15.4445 37.4813 15.4704C37.6486 15.4804 37.8219 15.4554 37.9679 15.5929C38.0127 15.635 38.1345 15.6382 38.2002 15.6092C38.3172 15.5554 38.4176 15.4599 38.5099 15.6326C38.7404 15.5231 38.9927 15.608 39.23 15.5521C39.2732 15.5427 39.3171 15.4962 39.3535 15.5059C39.7348 15.5927 40.0728 15.4377 40.4216 15.3312C40.5518 15.2908 40.9139 15.2984 41.0478 15.3307C41.0773 15.3381 41.1335 15.3438 41.1395 15.3336C41.2697 15.0403 41.5766 15.1537 41.7876 15.0447C41.7921 14.9813 41.7966 14.9162 41.801 14.8528C41.8285 14.8388 41.8572 14.809 41.8799 14.8124C42.13 14.8528 42.3079 14.7114 42.5153 14.6039C43.0162 14.3453 43.532 14.1019 44.0648 13.9181C44.2606 13.8504 44.3597 13.6717 44.5727 13.6353C44.7696 13.603 44.9993 13.5802 45.1482 13.3978C45.4654 13.3899 45.6862 13.1401 45.9756 13.0737C46.0745 13.0505 46.1836 12.8813 46.2944 13.0676C46.2959 13.0713 46.3669 13.0426 46.3952 13.0181C46.6137 12.8264 46.8991 12.8429 47.1539 12.7652C47.5913 12.6313 48.0571 12.6975 48.4955 12.5742C48.5389 12.5614 48.5907 12.5791 48.6382 12.5824C48.9092 12.6014 49.1878 12.6651 49.4522 12.627C49.6989 12.5894 49.9178 12.6719 50.14 12.7052C50.3798 12.7414 50.6149 12.8197 50.8629 12.8388C51.1074 12.8577 51.3259 13.0215 51.5852 12.9813C52.0171 13.229 52.5264 13.2806 52.9617 13.5056C53.1597 13.6078 53.3869 13.5194 53.5735 13.6845C53.6469 13.748 53.8286 13.7537 53.9458 13.8238C54.1972 13.9722 54.4838 13.9445 54.7363 13.9763C54.9106 14.1654 54.9533 14.3629 54.9373 14.5917C54.9169 14.8839 54.8721 15.1708 54.957 15.4739C55.0304 15.739 54.8636 15.7981 54.5622 15.7576C54.2187 15.7123 53.9006 15.5822 53.5635 15.5215C53.3033 15.475 53.0343 15.4261 52.7871 15.2938C52.632 15.2105 52.4339 15.2108 52.2631 15.1493C52.0543 15.0746 51.8544 14.9739 51.652 14.8837C51.597 14.8604 51.5438 14.8125 51.4907 14.8123C51.2377 14.8141 51.0017 14.7498 50.7691 14.661C49.9802 14.3583 49.1452 14.3618 48.3205 14.2935C48.1973 14.2849 48.1087 14.3123 48.0248 14.3984C48.0039 14.4199 47.9355 14.4364 47.9257 14.4251C47.7794 14.2415 47.6397 14.3927 47.5076 14.4348C47.0989 14.5636 46.6626 14.6056 46.2831 14.8231C46.1904 14.6309 46.0892 14.8644 45.9723 14.8155C45.7559 14.7244 45.684 14.9174 45.6048 15.064C45.481 15.1137 45.2712 14.9275 45.2342 15.2043C45.2333 15.2166 45.2091 15.2344 45.1985 15.2337C44.7841 15.1658 44.5469 15.5224 44.2158 15.6549C43.9828 15.7482 43.7162 15.818 43.5468 16.0396C43.5313 16.0598 43.4872 16.0832 43.4683 16.0748C43.2154 15.974 43.0555 16.1857 42.8811 16.2778C42.6736 16.3871 42.4902 16.5052 42.241 16.4771C41.9585 16.445 41.8044 16.6765 41.5937 16.8316C41.5445 16.8016 41.4937 16.7698 41.4174 16.722C41.3572 16.7744 41.2878 16.8562 41.1993 16.9066C41.0704 16.9807 40.9437 17.0727 40.7774 17.0469C40.7144 17.0372 40.6175 17.0074 40.5906 17.0374C40.3325 17.3147 39.9662 17.114 39.6753 17.2528C39.4796 17.3452 39.2565 17.3243 39.0395 17.3162C38.8596 17.3089 38.6738 17.2093 38.4916 17.361C38.392 17.4443 38.3115 17.1539 38.1258 17.3054C38.0322 17.3802 37.8203 17.3247 37.666 17.3051C37.5327 17.2887 37.3762 17.352 37.268 17.2047C37.2487 17.1769 37.1786 17.1684 37.1372 17.1779C36.9989 17.2089 36.8808 17.2785 36.7284 17.1564C36.6212 17.0711 36.4319 17.1728 36.2915 17.0303C36.2238 16.9619 36.0462 16.9973 35.9174 16.9936C35.8044 16.991 35.6986 16.9853 35.6248 16.8776C35.6136 16.8609 35.5487 16.8793 35.5374 16.8626C35.3951 16.6475 35.1228 16.823 34.9423 16.6477C34.8163 16.5275 34.6085 16.4634 34.4298 16.389C34.16 16.2764 33.8462 16.2368 33.6247 16.0144C33.3868 16.0278 33.3408 15.6744 33.0785 15.7321C33.0534 15.7374 33.0067 15.7218 32.9974 15.7034C32.8681 15.4273 32.5426 15.4028 32.3504 15.193C32.1761 15.004 31.8995 14.9121 31.6763 14.7656C31.4142 14.5934 31.1584 14.4075 30.9022 14.2269C30.8769 14.2092 30.8638 14.1694 30.8381 14.157C30.4737 13.9811 30.1509 13.741 29.8164 13.516C29.5005 13.3047 29.1543 13.1213 28.776 13.017C28.6371 12.979 28.5131 12.8819 28.3877 12.8024C27.9682 12.529 27.4543 12.493 27.0217 12.2559C26.8479 12.1606 26.6124 12.2662 26.4584 12.0909C26.022 12.0586 25.6082 11.8811 25.1613 11.8976C25.0159 11.9034 24.8396 11.9459 24.7215 11.789C24.7086 11.7705 24.651 11.7594 24.6342 11.7723C24.4888 11.8789 24.3538 11.9119 24.233 11.7425C24.1202 11.8885 23.9679 11.7912 23.8338 11.8119C23.2988 11.9 22.7577 11.9241 22.2216 12.0281C21.6173 12.145 21.0619 12.3998 20.4689 12.5334C20.3179 12.5671 20.2509 12.7923 20.0557 12.7008C19.7391 12.9033 19.3777 13.0125 19.0394 13.171C18.4615 13.4436 17.9245 13.8129 17.2887 13.9523C16.9687 14.2289 16.5329 14.2125 16.1714 14.3995C15.8743 14.552 15.5179 14.589 15.1881 14.6774C14.9844 14.7321 14.7826 14.6844 14.5785 14.7197C14.4013 14.7497 14.2182 14.6874 14.0316 14.7752C13.9384 14.8182 13.791 14.7512 13.6708 14.7252C13.5679 14.7038 13.4597 14.6839 13.3655 14.6401C13.2456 14.584 13.1463 14.7645 13 14.6305C12.9169 14.5539 12.7179 14.6178 12.5807 14.5817C12.4538 14.5499 12.3391 14.4711 12.2215 14.408C12.1465 14.3674 12.061 14.4764 11.9736 14.3606C11.912 14.2803 11.7585 14.2749 11.6465 14.2334C11.55 14.1966 11.4538 14.1563 11.3574 14.1177C11.2611 14.0791 11.1493 14.0589 11.0723 13.9969C10.982 13.9217 10.8857 13.9078 10.7819 13.8758C10.6727 13.8434 10.5936 13.7105 10.486 13.68C10.3801 13.6514 10.2863 13.6272 10.1957 13.5572C10.1152 13.4949 10.009 13.4698 9.91897 13.4175C9.07061 12.9284 8.2284 12.4274 7.37391 11.9502C7.04882 11.7683 6.74616 11.5438 6.4162 11.381C6.12724 11.2387 5.85803 11.0165 5.51019 11.0081C5.08574 10.7043 4.55572 10.6707 4.09659 10.4582C4.02803 10.4269 3.94682 10.4248 3.87163 10.4124C3.6687 10.3806 3.46663 10.3364 3.26246 10.3221C3.06182 10.3081 2.84532 10.369 2.65995 10.3136C2.48489 10.2624 2.36759 10.4983 2.1783 10.3471C2.11122 10.2946 1.92071 10.414 1.78535 10.4275C1.3506 10.4731 0.944539 10.6145 0.53066 10.7412C0.386041 10.786 0.287098 10.8604 0.170923 10.9283C0.0861458 10.9772 -0.0177826 10.9965 -0.173577 11.0493L-0.177589 11.0561Z" fill="black"/>
<g clip-path="url(#clip1_6202_22254)">
<path d="M37.8548 29.0567C38.0603 29.0781 38.2795 29.0546 38.4731 29.1937C38.5859 29.2758 38.6456 29.3578 38.6283 29.5034C38.6033 29.7104 38.5958 29.9186 38.5813 30.1262C38.5757 30.2054 38.5521 30.2905 38.5682 30.3641C38.5937 30.4791 38.7111 30.5969 38.6203 30.7056C38.5471 30.7924 38.4241 30.8563 38.3121 30.8892C37.9856 30.9813 37.804 31.2763 37.5104 31.4274C36.9267 31.7314 36.362 32.0687 35.7497 32.3265C35.008 32.639 34.2472 32.8706 33.4794 33.1016C32.8779 33.2806 32.2555 33.3538 31.6531 33.5204C31.5376 33.553 31.4012 33.5063 31.2766 33.5171C31.1592 33.5266 31.0406 33.5536 30.9268 33.5881C30.6524 33.668 30.3464 33.567 30.1038 33.6473C29.8051 33.7449 29.5423 33.6593 29.2668 33.6525C29.1308 33.65 28.9978 33.7309 28.8543 33.659C28.7091 33.5852 28.5621 33.6138 28.415 33.6937C28.369 33.7188 28.2762 33.6557 28.2052 33.633C28.1481 33.6149 28.0687 33.5616 28.0372 33.5824C27.7047 33.8103 27.4236 33.4794 27.1054 33.5031C26.789 33.5252 26.4516 33.5193 26.1519 33.4293C25.9093 33.3575 25.6423 33.3831 25.4336 33.2818C25.1889 33.1639 24.9462 33.1947 24.7052 33.1513C24.6893 33.1502 24.6677 33.1558 24.6576 33.148C24.3692 32.8714 23.9517 32.9235 23.6237 32.7326C23.3824 32.5919 23.0871 32.5659 22.8228 32.4502C22.3338 32.2356 21.8506 32.0125 21.3762 31.7654C20.7124 31.42 20.1295 30.953 19.4994 30.5552C19.3063 30.4339 19.1474 30.253 18.9931 30.0812C18.7453 29.8057 18.4363 29.5966 18.1772 29.3309C18.0485 29.1981 18.0064 29.0925 18.0265 28.9312L18.218 28.6209C18.2611 28.5603 18.3094 28.5018 18.3493 28.4373C18.4748 28.2357 18.5986 28.0338 18.7344 27.8116C19.0832 27.8573 19.3533 28.0672 19.609 28.3044C19.9031 28.5761 20.199 28.8461 20.495 29.1162C20.5282 29.1468 20.5628 29.1829 20.6024 29.198C20.9214 29.3158 21.1578 29.5517 21.4177 29.7555C21.567 29.8721 21.7723 29.9201 21.9178 30.0399C22.0633 30.1597 22.242 30.2094 22.3823 30.3023C22.6983 30.5136 23.0461 30.6476 23.3914 30.769C23.8125 30.9188 24.2121 31.1218 24.6554 31.2324C24.9996 31.3183 25.3623 31.3667 25.6856 31.5485C25.7878 31.6052 25.9298 31.5974 26.055 31.6026C26.4908 31.6189 26.9125 31.6838 27.3115 31.8709C27.3475 31.8875 27.418 31.8907 27.4372 31.8691C27.5314 31.7607 27.6511 31.8451 27.7487 31.8148C27.8771 31.7743 27.9473 31.9843 28.1118 31.8579C28.1978 31.7914 28.389 31.8649 28.5333 31.875C28.6777 31.8851 28.8214 31.904 28.9648 31.9016C29.0533 31.9007 29.1396 31.8555 29.2281 31.8546C29.3149 31.8518 29.4028 31.8845 29.4926 31.8908C29.6211 31.8997 29.7353 31.9608 29.8821 31.8844C30.0034 31.8204 30.1803 31.9459 30.3291 31.8166C30.3799 31.7724 30.5148 31.8154 30.6094 31.8291C30.8895 31.8699 31.1554 31.7099 31.4403 31.7829C31.5568 31.8122 31.6394 31.5156 31.8057 31.7182C31.9456 31.6396 32.0968 31.6519 32.2513 31.6433C32.3916 31.6354 32.5268 31.498 32.6647 31.4988C32.9582 31.4999 33.2014 31.2339 33.5094 31.3563C33.6352 31.2024 33.83 31.1983 33.9956 31.1321C34.2285 31.0387 34.4592 30.9257 34.702 30.8684C34.9519 30.8098 35.1273 30.5533 35.4146 30.6176C35.7412 30.4246 36.0755 30.2464 36.3876 30.033C36.6029 29.8871 36.8458 29.8033 37.0647 29.6576C37.3282 29.4815 37.5503 29.2636 37.8496 29.0563L37.8548 29.0567Z" fill="black"/>
<path d="M26.3346 24.9662C26.3295 25.1905 26.1501 25.3283 26.0917 25.5064C26.0286 25.7 25.9849 25.8703 25.7699 25.9349C25.5337 26.3021 25.1077 26.2741 24.7615 26.3932C24.3266 26.5432 24.315 26.507 23.9724 26.17C23.9294 26.128 23.8695 26.0478 23.8354 26.056C23.5741 26.1244 23.5428 25.8888 23.4439 25.7616C23.3432 25.6325 23.1439 25.5496 23.1981 25.3305C22.9747 25.1363 23.0533 24.8464 22.9924 24.6052C22.955 24.4558 23.0449 24.2586 23.1162 24.0991C23.3067 23.6756 23.6613 23.4103 24.0536 23.1884C24.3427 23.2528 24.6434 22.9484 24.9354 23.2235C24.9902 23.2751 25.1393 23.2166 25.2086 23.2621C25.2914 23.3174 25.3407 23.3721 25.4182 23.275C25.6504 23.3938 25.8697 23.5206 26.0085 23.762C26.1474 24.0016 26.1801 24.2674 26.2397 24.528C26.2737 24.6737 26.3006 24.8206 26.331 24.9677L26.3346 24.9662Z" fill="black"/>
<path d="M35.3753 24.5709C35.5122 24.8387 35.6024 25.1174 35.6648 25.4136C35.7538 25.8355 35.6405 26.4183 35.3985 26.7675C35.1626 27.1065 34.7956 27.1692 34.4488 27.2723C34.3639 27.2982 34.2603 27.2627 34.1954 27.3554C34.142 27.2597 34.0442 27.267 33.9579 27.2362C33.8457 27.1965 33.7521 27.1192 33.6178 27.1169C33.5208 27.1137 33.4237 27.0096 33.3278 27.0153C33.1486 27.024 33.2689 26.8202 33.1414 26.7971C33.0576 26.7824 32.9803 26.7239 32.8997 26.6882C32.8052 26.648 32.9032 26.4356 32.7124 26.4824C32.6956 26.3945 32.6952 26.299 32.66 26.2205C32.4778 25.8168 32.5939 25.4465 32.7716 25.0804C32.8232 24.9744 32.8569 24.7963 32.9344 24.7752C33.2176 24.696 33.342 24.3845 33.6303 24.334C34.078 24.2538 34.5261 24.0942 34.9387 24.4661C35.0285 24.5467 35.2027 24.5341 35.3787 24.5729L35.3753 24.5709Z" fill="black"/>
</g>
<g clip-path="url(#clip2_6202_22254)">
<path d="M26.485 41.9828C8.51146 40.0185 -0.57525 44.5122 -2.87191 47.0046L-0.986303 55.4491L25.2297 59.9353L55.5405 53.919C53.3443 50.7587 44.4586 43.9471 26.485 41.9828Z" fill="#BDA3FA"/>
<path d="M52.9815 50.4993C52.6161 50.9195 52.2546 51.3346 51.8949 51.748C51.4773 51.473 51.086 51.2263 50.7046 50.9644C50.4311 50.7773 50.1773 50.5632 49.9057 50.3744C49.5614 50.1381 49.1339 50.0304 48.8591 49.6858C48.4164 49.6424 48.1917 49.1881 47.7538 49.1026C47.6107 49.0749 47.4854 48.8681 47.3131 48.803C47.1323 48.7337 46.9366 48.6988 46.7911 48.5542C46.6622 48.425 46.4798 48.3768 46.3315 48.2727C46.183 48.1704 45.9755 48.1276 45.8376 47.9747C45.818 47.9521 45.7883 47.9217 45.7651 47.9236C45.5281 47.9495 45.368 47.7597 45.1803 47.7129C44.9926 47.6662 44.95 47.4404 44.752 47.4637C44.5844 47.4838 44.4826 47.321 44.341 47.297C44.063 47.251 43.8707 47.0412 43.6131 46.956C43.5163 46.9245 43.3657 47.0289 43.2996 46.8368C43.2716 46.757 43.1026 46.7205 42.9943 46.6757C42.8705 46.6246 42.7342 46.601 42.6146 46.5413C42.4231 46.4466 42.4291 46.4364 42.1911 46.425C42.2009 46.6645 42.1449 46.8834 42.2079 47.146C42.2791 47.4428 42.2041 47.7825 42.1538 48.0973C42.1388 48.1847 42.006 48.2373 42.1116 48.372C42.1457 48.4151 42.0532 48.5501 42.0323 48.646C41.9773 48.9021 41.9379 49.1611 41.8726 49.413C41.8606 49.4581 41.7529 49.4807 41.6831 49.5165L41.6516 49.967C41.4736 50.1615 41.3215 50.3631 41.1353 50.5217C40.8156 50.7947 40.4996 51.0892 40.1321 51.2863C39.897 51.4114 39.6734 51.5726 39.4179 51.6608C39.3635 51.68 39.2761 51.7164 39.2563 51.6955C39.1921 51.6274 39.1464 51.5976 39.0803 51.6832C39.0706 51.6949 39.0558 51.7045 39.0445 51.7143C38.8751 51.8599 38.7144 52.0344 38.4669 51.8561C38.3573 52.0059 38.1075 51.861 38.0881 51.9357C38.0325 52.1494 37.8421 52.0388 37.7712 52.117C37.6677 52.2318 37.6245 52.0395 37.5579 52.1074C37.4666 52.1983 37.3995 52.1723 37.3225 52.0838C37.3013 52.0593 37.233 52.0493 37.1984 52.0628C36.789 52.2269 36.4099 52.0837 36.04 51.9358C35.9488 51.8993 35.8989 51.8286 35.8028 51.9139C35.7744 51.9402 35.6819 51.9479 35.679 51.9388C35.5954 51.7437 35.4313 51.8136 35.2829 51.7856C35.1501 51.7621 35.0502 51.5977 34.8858 51.5968C34.7038 51.5947 34.5914 51.456 34.4483 51.3788C34.3187 51.3096 34.1448 51.3169 34.021 51.241C33.7176 51.0535 33.4383 50.8235 33.119 50.6597C33.0978 50.4319 32.7902 50.5819 32.7241 50.3385C32.6817 50.1852 32.4278 50.0985 32.2832 49.9663C32.1434 49.8398 32.0097 49.7031 31.8927 49.5552C31.7678 49.3944 31.4795 49.4202 31.4518 49.1583C31.1351 49.0336 31.0356 48.6605 30.725 48.5238C30.6581 48.4944 30.6222 48.4017 30.564 48.3481C30.4478 48.2391 30.494 48.0089 30.2552 47.9834C30.0972 47.967 30.1866 47.6744 29.9765 47.6703C29.7332 47.3296 29.4898 46.9907 29.2466 46.65C29.2112 46.5998 29.1802 46.5127 29.1383 46.5045C28.9077 46.4636 28.9073 46.2407 28.8002 46.1041C28.6572 45.9226 28.5369 45.7214 28.3922 45.5397C28.2004 45.2981 27.9583 45.092 27.8998 44.766C27.8971 44.7534 27.8443 44.7497 27.7819 44.7312C27.766 44.7814 27.7378 44.8307 27.7343 44.8817C27.6984 45.3444 27.6089 45.8139 27.6495 46.2713C27.7034 46.8905 27.5632 47.5051 27.6218 48.1087C27.6869 48.796 27.5625 49.4629 27.5611 50.1402C27.5603 50.3541 27.4528 50.5766 27.6102 50.7786C27.4195 51.027 27.6215 51.2993 27.5641 51.5642C27.5068 51.8272 27.4546 52.1189 27.511 52.374C27.6345 52.9345 27.459 53.4723 27.4914 54.0458L25.7701 53.9254C25.7807 53.2682 25.6975 52.6116 25.7877 51.9529C25.803 51.8354 25.8583 51.7031 25.7387 51.5922C25.7204 51.575 25.7706 51.49 25.785 51.4362C25.8071 51.3476 25.8488 51.2567 25.8407 51.1695C25.8313 51.0521 25.6821 50.909 25.7832 50.8294C25.9291 50.7158 25.7781 50.6487 25.7912 50.5629C25.8089 50.4368 25.7883 50.301 25.8249 50.1815C25.882 49.998 25.7335 49.8196 25.8361 49.6428C25.7127 49.5352 25.7948 49.4737 25.8656 49.3725C25.942 49.2665 25.674 49.1027 25.8929 48.9818C25.7251 48.6252 25.8794 48.2646 25.8867 47.9078C25.9051 47.1132 25.851 46.3188 25.9419 45.524C25.9592 45.3784 25.8805 45.2385 25.9666 45.0694C26.0199 44.9653 25.9228 44.7851 25.8885 44.6183C25.6487 44.7341 25.5219 44.9552 25.4044 45.1681C25.3031 45.352 25.1597 45.4799 25.0155 45.6202C24.9055 45.7257 24.8254 45.8598 24.7138 45.9634C24.5889 46.0803 24.4806 46.2124 24.3609 46.3314C24.2393 46.452 24.1467 46.587 23.9659 46.6186C23.6615 47.0766 23.1808 47.3489 22.7957 47.7217C22.6289 47.8816 22.454 48.0303 22.2252 48.1152C22.1017 48.1614 22.0158 48.3021 21.896 48.3716C21.4665 48.621 21.0441 48.8939 20.5885 49.0867C20.1546 49.2721 19.7268 49.4969 19.2409 49.5407C19.1091 49.5527 18.9696 49.5748 18.8493 49.6265C18.5885 49.7392 18.3258 49.7774 18.0432 49.747C17.9502 49.737 17.8031 49.8169 17.7652 49.7771C17.6417 49.6464 17.5186 49.8129 17.4919 49.7898C17.2469 49.5764 16.9898 49.8131 16.7467 49.7483C16.5557 49.6978 16.3615 49.617 16.1702 49.6213C15.9682 49.6267 15.8051 49.5304 15.6472 49.461C15.4929 49.3918 15.2767 49.4227 15.1898 49.2999C15.0625 49.1229 14.8668 49.1889 14.7386 49.1003C14.4147 48.876 14.0852 48.6567 13.8849 48.2836C13.7659 48.0631 13.6447 47.7981 13.3233 47.7651C13.2671 47.7594 13.1689 47.6464 13.179 47.6029C13.223 47.4043 13.1003 47.2613 12.9768 47.2067C12.7556 47.1081 12.9612 46.7723 12.6786 46.7419C12.6128 46.5693 12.6192 46.3769 12.574 46.2146C12.5144 46.0035 12.5881 45.7593 12.3946 45.5671C12.2887 45.4624 12.3926 45.2416 12.2863 45.0926C12.209 44.9846 12.4413 44.9248 12.3386 44.7744C12.2889 44.7019 12.3634 44.5462 12.3787 44.4288C12.3828 44.3955 12.387 44.3604 12.3806 44.3263C12.3491 44.1437 12.3652 43.9892 12.449 43.8023C12.5434 43.5913 12.5111 43.3202 12.6155 43.0905C12.693 42.9191 12.7499 42.7374 12.8194 42.553C12.6395 42.4944 12.4505 42.4918 12.2582 42.5863C12.1648 42.631 12.0493 42.7662 11.9488 42.5841C11.8137 42.7462 11.5753 42.5385 11.4458 42.7205C11.3514 42.629 11.2899 42.8758 11.1684 42.7417C11.134 42.7022 10.9848 42.7625 10.8878 42.784C10.7855 42.8052 10.6848 42.8547 10.5839 42.8547C10.2322 42.8514 9.90837 43.0816 9.54582 42.9802C9.53022 42.9756 9.50583 42.9704 9.4983 42.9769C9.2306 43.2642 8.82282 43.1012 8.52039 43.2782C8.24195 43.188 8.03778 43.4266 7.77684 43.4402C7.52646 43.4545 7.27452 43.5165 7.03088 43.5861C6.52916 43.7297 6.04462 43.931 5.5123 43.9557C5.43424 43.9591 5.3635 44.0603 5.28249 44.1059C5.22534 44.139 5.19831 43.9691 5.115 44.0729C4.95804 44.2689 4.70889 44.2656 4.49931 44.3288C4.24274 44.4064 3.98923 44.516 3.73941 44.5728C3.48608 44.6294 3.25075 44.7066 3.02201 44.8162C2.82077 44.9118 2.57044 44.8748 2.39764 45.0697C2.34781 45.1246 2.10837 45.0583 2.09711 45.0929C2.05645 45.2192 1.95375 45.2208 1.87212 45.2752C1.66429 45.4146 1.44396 45.4292 1.18843 45.3654C1.03219 44.8681 0.873293 44.3582 0.712881 43.8447C0.962129 43.7454 1.22722 43.6472 1.48461 43.5326C2.21661 43.207 3.01169 43.0415 3.72576 42.6688C4.5442 42.5739 5.28717 42.1925 6.09383 42.0385C6.33399 41.9934 6.58327 41.9188 6.822 41.8435C7.06977 41.7654 7.32909 41.6738 7.61229 41.6707C7.85301 41.668 8.08905 41.4794 8.33215 41.4681C8.92329 41.4369 9.48895 41.2642 10.0638 41.1629C10.7978 41.0356 11.5524 40.9946 12.2675 40.7581C12.5497 40.8451 12.8181 40.6994 13.0982 40.7154C13.2462 40.724 13.3976 40.6833 13.5446 40.6546C13.9517 40.5752 14.3726 40.6259 14.7715 40.537C15.0229 40.4821 15.2813 40.555 15.5036 40.4874C15.7457 40.4142 15.9667 40.4667 16.1958 40.4527C16.361 40.443 16.5247 40.4032 16.6915 40.3954C16.8441 40.3884 17.0029 40.4437 17.1384 40.3276C17.1478 40.3194 17.1701 40.3298 17.1859 40.3309C17.6229 40.3296 18.0594 40.3336 18.497 40.3236C18.7255 40.3183 18.9546 40.2795 19.1844 40.2814C19.4249 40.2823 19.6772 40.3672 19.9017 40.3174C20.4283 40.1986 20.9378 40.3474 21.4548 40.3394C21.6532 40.3356 21.8584 40.4366 22.0491 40.289C22.0772 40.2662 22.1453 40.3045 22.1903 40.2935C22.3777 40.243 22.5118 40.4752 22.7451 40.3518C22.9012 40.269 23.1511 40.3625 23.3588 40.377L24.6542 40.4676C24.8619 40.4821 25.0774 40.5361 25.2746 40.4986C25.4253 40.4685 25.4831 40.6529 25.6442 40.5757C25.7593 40.5219 25.9282 40.5355 26.0601 40.5712C26.6744 40.7397 27.3206 40.6806 27.9303 40.8134C28.4129 40.9179 28.8945 40.9357 29.3755 40.987C29.6231 41.0131 29.8341 41.157 30.0966 41.1471C30.3218 41.1381 30.5698 41.1076 30.7719 41.2774C30.802 41.3025 30.8649 41.2875 30.9125 41.2908C31.041 41.2998 31.1703 41.2964 31.2959 41.3211C31.4268 41.3462 31.5514 41.4115 31.6821 41.4383C31.8077 41.463 31.9376 41.4527 32.0654 41.4704C32.1758 41.4852 32.2741 41.5469 32.3964 41.5431C32.5151 41.5408 32.6536 41.5576 32.7519 41.6193C32.9519 41.7429 33.1691 41.7227 33.3807 41.757C33.5749 41.7882 33.7818 41.8133 33.9544 41.8997C34.1595 42.0024 34.3961 41.9571 34.5774 42.0458C34.7895 42.1491 34.9991 42.1354 35.2086 42.1748C35.3553 42.201 35.4977 42.264 35.6377 42.311C35.9712 42.4227 36.3114 42.4907 36.653 42.5624C36.8308 42.5996 37.061 42.5962 37.17 42.7064C37.3483 42.8887 37.5881 42.7463 37.7747 42.9114C37.9145 43.0362 38.1796 43.014 38.3862 43.0691C38.6606 43.1414 38.9032 43.314 39.1931 43.3413C39.3199 43.5271 39.5487 43.3662 39.7124 43.5032C39.8411 43.6113 40.0473 43.6204 40.2125 43.6868C40.3638 43.7486 40.5006 43.8413 40.6542 43.8963C40.8251 43.956 41.0133 43.9709 41.1802 44.0374C41.6779 44.2296 42.1707 44.4409 42.6662 44.6401C42.9826 44.7683 43.3173 44.8642 43.6175 45.0214C43.923 45.1807 44.2599 45.2697 44.5524 45.437C44.981 45.681 45.4599 45.8135 45.8793 46.0639C46.4787 46.4206 47.1313 46.6732 47.7343 47.0284C48.0384 47.2071 48.3378 47.4031 48.6632 47.555C48.9715 47.6986 49.2488 47.9072 49.5385 48.0884C50.3502 48.5962 51.1997 49.0429 51.9226 49.6824C52.0776 49.8188 52.2628 49.9273 52.4452 50.025C52.6549 50.1369 52.8268 50.2833 52.978 50.4991L52.9815 50.4993ZM28.6369 42.6969C28.6583 42.7709 28.6581 42.824 28.6842 42.8559C28.8891 43.0877 29.0367 43.3545 29.1785 43.6279C29.2423 43.7527 29.3704 43.843 29.456 43.9586C29.5368 44.0686 29.5745 44.2375 29.6783 44.2961C29.8163 44.3712 29.7238 44.5557 29.9088 44.6164C30.0351 44.6571 30.1356 44.8639 30.1867 45.0179C30.2453 45.1917 30.425 45.2273 30.4997 45.3723C30.612 45.587 30.7019 45.8445 30.8795 45.986C31.2397 46.2729 31.3829 46.7552 31.8081 46.9724C31.9246 47.2282 32.1466 47.3922 32.327 47.5941C32.6928 48.0035 33.1068 48.3561 33.5131 48.717C33.9393 49.097 34.3925 49.4453 34.905 49.704C35.0501 49.7778 35.2095 49.8261 35.3487 49.9083C36.122 50.3586 36.1275 50.3554 36.9136 50.3945C37.0758 50.4023 37.2661 50.336 37.4085 50.4998C37.4282 50.5224 37.5139 50.486 37.5692 50.4792C37.66 50.4697 37.7597 50.4359 37.8393 50.461C37.9292 50.4903 37.9733 50.2899 38.0674 50.4362C38.1153 50.5103 38.2028 50.3201 38.2745 50.4596C38.3056 50.5201 38.4175 50.5385 38.4926 50.5774C38.6018 50.4825 38.7015 50.3727 38.8217 50.298C38.9196 50.2376 39.043 50.2179 39.1553 50.1798C39.2115 50.1608 39.279 50.1566 39.3222 50.1207C39.5211 49.9578 39.7677 49.8194 39.8902 49.6104C40.0229 49.3827 40.1631 49.1484 40.2667 48.9063C40.3616 48.6865 40.3382 48.4143 40.4332 48.1945C40.5365 47.9559 40.4777 47.7343 40.4921 47.5036C40.5212 47.0617 40.4085 46.6506 40.3603 46.2263C40.3454 46.0855 40.2758 45.8931 40.1702 45.8345C39.966 45.7194 39.8667 45.5214 39.7413 45.4171C39.4641 45.3341 39.2135 45.3007 39.0058 45.1853C38.4985 44.904 37.9275 44.8234 37.3876 44.653C37.0294 44.5395 36.6539 44.446 36.2993 44.3328C35.9273 44.2148 35.5436 44.1367 35.1715 44.0205C35.0036 43.9681 34.8369 43.8733 34.6481 43.8672C34.4487 43.8603 34.2573 43.7903 34.0673 43.7505C33.6786 43.6685 33.2938 43.5814 32.9167 43.4613C32.4773 43.321 32.0161 43.2887 31.5666 43.1918C31.1292 43.0976 30.6889 42.9448 30.2248 42.9813C30.1625 42.9858 30.0751 42.9973 30.0386 42.9629C29.8357 42.779 29.5739 42.9057 29.3642 42.8185C29.1441 42.7288 28.9285 42.6749 28.6367 42.7004L28.6369 42.6969ZM25.2249 42.3982C25.0602 42.3248 24.9408 42.136 24.7366 42.2986C24.7066 42.323 24.6041 42.2469 24.5308 42.2329C24.4453 42.2163 24.3572 42.2102 24.2722 42.2131C24.2155 42.2144 24.1198 42.2678 24.1102 42.253C24.0078 42.0991 23.8501 42.1535 23.7164 42.1424C23.5986 42.1324 23.4867 42.1139 23.3531 42.1789C23.1993 42.253 23.0027 42.2074 22.844 42.099C22.211 42.2741 21.5683 41.9285 20.9347 42.1371C20.8609 41.9533 20.7624 42.148 20.6778 42.1191C20.5688 42.0832 20.4164 41.9877 20.3552 42.0276C20.1938 42.1348 20.0365 42.0831 19.8972 42.0522C19.7614 42.0214 19.67 42.2662 19.5207 42.0736C19.3861 41.8997 19.2433 42.1196 19.094 42.1057C18.7214 42.0725 18.3518 42.0714 17.9746 42.1034C17.5601 42.1381 17.1352 42.2198 16.7133 42.132C16.661 42.1212 16.598 42.1628 16.5393 42.1675C16.2973 42.1878 16.068 42.3061 15.8203 42.257C15.6581 42.2244 15.0779 42.2245 15.0377 42.319C14.9617 42.4959 14.7933 42.5265 14.6866 42.6358C14.578 42.7467 14.4993 42.911 14.4655 43.066C14.4392 43.1898 14.3931 43.2927 14.3394 43.4021C14.2364 43.6107 14.2063 43.8385 14.1864 44.0723C14.167 44.2991 14.0844 44.5197 14.0562 44.7459C14.0442 44.8424 14.1545 44.9845 14.1152 45.0401C14.005 45.2004 13.9907 45.3285 14.0866 45.4997C14.1292 45.5735 14.0877 45.6873 13.9849 45.7402C14.0647 45.813 14.0556 45.8672 13.9825 45.9523C13.9594 45.979 14.0436 46.1653 14.0943 46.1741C14.2344 46.1945 14.1912 46.3065 14.2352 46.3591C14.4069 46.5603 14.2955 46.9133 14.6322 47.0306C14.7323 47.0659 14.7663 47.2628 14.8547 47.3645C14.9479 47.4736 15.1098 47.3841 15.2405 47.487C15.4854 47.6775 15.733 47.9053 16.0909 47.8719C16.1318 47.8677 16.1798 47.8905 16.221 47.9075C16.5023 48.0333 16.8082 48.06 17.1024 48.1266C17.5639 48.2296 18.009 48.0609 18.4553 47.9771C18.8046 47.9131 19.1827 47.8688 19.4829 47.6988C19.9689 47.425 20.5524 47.3261 20.9504 46.8958C21.1654 46.8561 21.2842 46.6751 21.4463 46.5573C21.5934 46.4509 21.7536 46.3613 21.8957 46.251C22.0603 46.1227 22.2185 45.9852 22.3683 45.8418C22.5938 45.6259 22.8111 45.4023 23.0301 45.1789C23.2149 44.9902 23.4046 44.8054 23.5793 44.6089C23.7617 44.4041 23.9222 44.1819 24.1045 43.9788C24.5345 43.4942 24.909 42.9704 25.2249 42.3982Z" fill="black"/>
</g>
</g>
<rect x="3.77527" y="0.0701617" width="53.1066" height="53.1066" rx="14.1147" transform="rotate(4 3.77527 0.0701617)" stroke="black" stroke-width="1.76434"/>
<defs>
<clipPath id="clip0_6202_22254">
<rect x="4.59375" y="1.01172" width="51.3422" height="51.3422" rx="13.2325" transform="rotate(4 4.59375 1.01172)" fill="white"/>
</clipPath>
<clipPath id="clip1_6202_22254">
<rect width="20.6939" height="10.3108" fill="white" transform="translate(18.4648 22.6758) rotate(4)"/>
</clipPath>
<clipPath id="clip2_6202_22254">
<rect width="52.5984" height="13.3737" fill="white" transform="translate(1.94531 38.8516) rotate(4)"/>
</clipPath>
</defs>
</svg>
