<svg width="56" height="56" viewBox="0 0 56 56" fill="none" xmlns="http://www.w3.org/2000/svg">
<g clip-path="url(#clip0_6202_22274)">
<rect x="1.48438" y="3.18359" width="50.9993" height="51" rx="13.1442" transform="rotate(-2 1.48438 3.18359)" fill="#92A3FF"/>
<g clip-path="url(#clip1_6202_22274)">
<path d="M23.336 33.4138C23.4799 32.9633 23.4696 32.9198 23.1434 32.5665C23.3361 32.3598 23.5271 32.155 23.7586 31.9067C23.8742 31.9026 24.0561 31.8367 24.2189 31.98C24.8119 31.8874 25.4042 32.0754 25.9926 32.0023C26.1794 31.9782 26.3534 31.9897 26.534 31.9904C27.1056 31.9862 27.6849 32.0045 28.2484 31.92C28.6165 31.865 28.9814 31.8207 29.3526 31.8025C29.3841 31.8014 29.4371 31.8118 29.4453 31.7975C29.5753 31.5527 29.8311 31.6455 30.0231 31.5687C30.2168 31.4917 30.3954 31.3838 30.6124 31.371C30.6649 31.3691 30.7138 31.3131 30.7654 31.2832C31.1091 31.0836 31.4718 30.9218 31.8249 30.7394C31.9507 30.6754 32.0162 30.5433 32.1273 30.4623C32.247 30.3739 32.3887 30.3129 32.4957 30.2127C32.606 30.1089 32.6799 29.966 32.783 29.8537C32.9181 29.7051 33.0681 29.5807 33.1918 29.408C33.369 29.1598 33.55 28.9185 33.6843 28.6455C33.8022 28.4064 34.06 28.3062 34.2095 28.0695C34.4296 28.0934 34.6566 28.117 34.9153 28.1448C34.9051 28.4047 34.9441 28.6155 35.2272 28.6898C35.3511 28.7223 35.358 28.8676 35.3212 28.9706C35.2001 29.3186 35.1301 29.6735 34.901 29.9936C34.5432 30.4937 34.2126 31.0208 33.757 31.4313C33.1245 32.0005 32.4372 32.505 31.6118 32.774C31.137 33.1378 30.506 33.095 30.0006 33.3862C29.9387 33.4217 29.8488 33.4073 29.77 33.4118C29.6038 33.4229 29.4423 33.418 29.2827 33.5165C29.1624 33.5891 28.9781 33.4815 28.8445 33.6248C28.8124 33.6592 28.6782 33.5832 28.5924 33.5862C28.5153 33.5889 28.4399 33.6389 28.3614 33.6504C28.1992 33.6753 28.0452 33.5843 27.8636 33.6573C27.7115 33.7204 27.519 33.6816 27.3439 33.6877C27.153 33.6943 26.9624 33.7115 26.771 33.7042C26.5287 33.6951 26.2727 33.797 26.0445 33.6384C26.0337 33.6317 26.0109 33.6325 25.9972 33.64C25.5855 33.8543 25.1591 33.5956 24.7394 33.6787C24.2413 33.7767 23.7937 33.5626 23.336 33.4138Z" fill="black"/>
<path d="M24 23.7352C23.985 23.9584 23.8819 24.1216 23.8077 24.3048C23.7382 24.4756 23.7192 24.6341 23.5486 24.7698C23.1869 25.0578 23.0126 25.1884 22.5568 25.3446C22.1738 25.4754 22.1104 25.4654 21.7927 25.2064C21.744 25.1678 21.7017 25.1131 21.6467 25.0923C21.2325 24.9331 21.2253 24.9281 20.9027 24.3782C20.5979 24.2345 20.8149 23.8727 20.612 23.6869C20.7406 23.4509 20.681 23.1514 20.8717 22.9378C21.0236 22.7676 21.1664 22.589 21.3274 22.4274C21.4104 22.3438 21.5129 22.2666 21.6221 22.2294C21.7919 22.1709 21.9734 22.147 22.1493 22.1111C22.1964 22.1024 22.2537 22.0881 22.2912 22.1061C22.5591 22.2458 22.8624 22.1949 23.1421 22.2675C23.1969 22.2814 23.2492 22.3217 23.2944 22.3604C23.5237 22.5506 23.6381 22.7623 23.7506 23.1214C23.8175 23.3312 23.9157 23.5312 23.9982 23.7352L24 23.7352Z" fill="black"/>
<path d="M32.8721 22.4266C33.0365 22.6646 33.1562 22.927 33.2452 23.2168C33.3859 23.6801 33.3292 24.2169 33.1117 24.6173C32.9091 24.9927 32.5299 25.0305 32.213 25.1958C32.1717 25.2183 31.865 25.222 31.8155 25.2097C31.6405 25.172 31.4339 25.181 31.3008 25.0857C31.1929 25.0088 31.0172 25.1499 30.988 24.9651C30.9611 24.7994 30.7914 24.8614 30.713 24.7747C30.6438 24.7 30.532 24.6636 30.4679 24.5851C30.4167 24.5238 30.4252 24.4165 30.3789 24.3462C30.1378 23.9706 30.2281 23.5922 30.3498 23.2109C30.5088 23.144 30.3702 22.9436 30.4752 22.8856C30.7677 22.7246 30.9475 22.4009 31.2812 22.3156C31.6619 22.2181 32.0432 22.0891 32.4243 22.3581C32.534 22.4349 32.7189 22.4074 32.8722 22.4284L32.8721 22.4266Z" fill="black"/>
</g>
<g clip-path="url(#clip2_6202_22274)">
<path d="M50.127 15.1628C50.3885 16.6267 54.2801 19.4311 56.1932 20.6503L59.868 12.8936L58.2972 -1.95754L23.7765 -3.73325L-3.35513 0.195409C-3.78327 6.34812 -4.12244 18.8985 -2.05401 19.8785C0.531517 21.1034 3.42036 18.4598 7.21135 14.0309C12.8845 18.3046 17.4373 15.6029 21.2741 12.4877C25.3832 17.1667 30.4227 15.8509 34.9093 13.7652C38.3086 18.2059 46.3318 16.9613 50.127 15.1628Z" fill="#FFBB00"/>
<path d="M21.8713 -0.661261L22.1923 -0.672472C22.2785 -0.494331 22.3888 -0.305073 22.4554 -0.10403C22.4858 -0.012808 22.3884 0.122181 22.4189 0.21511C22.4914 0.441577 22.601 0.656499 22.4338 0.884503C22.5205 1.03015 22.5396 1.18671 22.5454 1.35399C22.5924 2.79642 22.6393 4.23885 22.6982 5.68086C22.7095 5.95561 22.5736 6.20303 22.6208 6.48507C22.6656 6.74327 22.6494 7.01043 22.6552 7.27511C22.6587 7.42196 22.5507 7.54536 22.5699 7.70533C22.5845 7.83129 22.6527 7.98271 22.5223 8.09664C22.6917 8.27187 22.4729 8.43503 22.5082 8.61665C22.5436 8.8034 22.4668 8.99065 22.3499 9.14854C22.4424 9.50761 22.2095 9.80285 22.1598 10.1327C22.0909 10.5965 21.8619 11.0027 21.7344 11.443C21.6964 11.5725 21.6771 11.6534 21.7728 11.7646C21.913 11.9306 22.0169 12.1286 22.1587 12.2946C22.4141 12.595 22.7847 12.7854 22.9727 13.1514C23.3052 13.3226 23.5777 13.578 23.8729 13.8001C24.1891 14.0386 24.5427 14.2296 24.8932 14.3797C25.3076 14.5584 25.7187 14.7867 26.1848 14.8371C26.3265 14.8526 26.4658 14.8973 26.6048 14.9335C26.6598 14.9486 26.7108 14.9981 26.7618 14.9963C27.2459 14.9794 27.7214 15.1047 28.2093 15.0483C28.5616 15.007 28.9187 15.0065 29.2743 15.0094C29.5923 15.0103 29.8773 14.8893 30.176 14.8241C30.5187 14.7506 30.8575 14.6619 31.1889 14.5598C31.4884 14.4656 31.7951 14.3848 32.0925 14.2804C32.4 14.1723 32.6704 14.0261 32.9383 13.8578C33.4459 13.5393 33.9981 13.2791 34.3841 12.7905C34.4265 12.7377 34.5145 12.7261 34.5656 12.6782C34.8815 12.3732 35.2133 12.0848 35.4254 11.6826C35.5195 11.5033 35.7755 11.4311 35.7838 11.1813C36.025 11.1234 36.0111 10.8709 36.1145 10.7152C36.2745 10.4755 36.3371 10.1742 36.5543 9.96499C36.4894 9.66478 36.7405 9.45435 36.7732 9.17123C36.802 8.92584 36.9435 8.69019 36.9852 8.42555C37.02 8.20388 37.1523 7.99931 37.1712 7.76111C37.1783 7.67029 37.3009 7.57885 37.2897 7.50063C37.2786 7.42753 37.2261 7.38322 37.246 7.27315C37.3101 6.91545 37.4342 6.57275 37.4689 6.2024C37.5176 5.69826 37.5972 5.20159 37.5997 4.68882C37.6006 4.5196 37.6092 4.3296 37.6454 4.14719C37.6875 3.94065 37.6422 3.71494 37.6346 3.49816L37.6135 2.89393C37.606 2.67715 37.5607 2.45144 37.6028 2.2449C37.6364 2.0865 37.3838 2.01329 37.5204 1.88206C37.6718 1.73664 37.469 1.67707 37.4721 1.571C37.4758 1.43245 37.5026 1.276 37.4525 1.1547C37.2669 0.711728 37.3868 0.247832 37.2993 -0.260092C37.3703 -0.320677 37.4574 -0.407458 37.557 -0.477586C37.645 -0.54047 37.7473 -0.629492 37.8393 -0.625868C37.9585 -0.621486 38.0835 -0.548947 38.193 -0.480995C38.3442 -0.388864 38.4777 -0.267064 38.6289 -0.173225C38.6863 -0.137632 38.7695 -0.140538 38.8535 -0.122962C39.0057 0.0955964 38.9551 0.399849 39.1028 0.637362C38.8922 0.839539 39.1534 1.01328 39.1381 1.20863C39.1201 1.42288 39.1481 1.64236 39.1557 1.85913C39.1573 1.90522 39.1424 1.96384 39.1639 1.99727C39.2609 2.14256 39.3078 2.2691 39.188 2.44247C39.1475 2.50028 39.2702 2.65322 39.2758 2.76411C39.3005 3.18193 39.2864 3.60454 39.3365 4.01807C39.3554 4.16951 39.097 4.31696 39.3365 4.45556C39.1877 4.57697 39.2682 4.73993 39.2647 4.8836C39.2588 5.0547 39.3075 5.23244 39.2741 5.39425C39.1822 5.83324 39.2219 6.28644 39.1298 6.71861C39.0434 7.11639 38.9672 7.51553 38.8876 7.91479C38.8369 8.16778 38.8309 8.43459 38.7392 8.68217C38.649 8.92458 38.5829 9.17468 38.4927 9.41538C38.3417 9.81713 38.2166 10.2282 38.0348 10.6225C37.9589 10.7875 37.8783 10.9629 37.7973 11.1281C37.5624 11.6097 37.2929 12.0737 37.0216 12.5343C36.967 12.6268 36.7931 12.6636 36.769 12.7534C36.7374 12.8707 36.6595 12.9298 36.5995 13.0122C36.4761 13.1806 36.344 13.3441 36.2258 13.514C36.093 13.7049 36.1002 13.8619 36.2908 13.9151C36.5725 13.9924 36.6246 14.3153 36.8825 14.3951C36.9023 14.6234 37.1171 14.6381 37.2546 14.7273C37.4286 14.8392 37.7484 15.0844 37.8812 15.2352C37.9273 15.2883 37.9983 15.3251 38.0639 15.3536C38.2073 15.417 38.3634 15.4542 38.5004 15.5298C39.0204 15.8107 39.5891 15.9737 40.1399 16.1612C40.5684 16.3069 41.0199 16.474 41.4969 16.4488C41.5564 16.4467 41.6357 16.4303 41.6725 16.4615C41.9369 16.6761 42.2422 16.6039 42.5379 16.597C42.9236 16.587 43.3092 16.5752 43.6947 16.5566C43.9001 16.546 44.101 16.551 44.3069 16.4583C44.4844 16.3786 44.7089 16.4272 44.9116 16.3381C45.0959 16.2582 45.3156 16.2676 45.5126 16.2094C45.6607 16.1667 45.8062 16.0932 45.9393 16.01C46.2822 15.7963 46.671 15.6785 47.0364 15.5273C47.4857 15.3407 47.8294 15.0023 48.265 14.8145C48.5449 14.4527 49.0526 14.3307 49.2407 13.873C49.5198 13.7334 49.6119 13.4465 49.7737 13.2101C49.9436 12.9615 50.1467 12.7374 50.334 12.5001C50.3519 12.4773 50.3628 12.4495 50.3738 12.4235C50.5253 11.9876 50.7337 11.577 50.9388 11.1665C51.0134 11.0152 50.9982 10.8209 51.0641 10.6648C51.1239 10.5243 51.0896 10.3717 51.1748 10.2286C51.26 10.0872 51.2411 9.8879 51.3036 9.7285C51.4206 9.42876 51.4212 9.10233 51.5281 8.80295C51.3495 8.65879 51.5556 8.52001 51.5335 8.37381C51.5111 8.22078 51.4902 8.05916 51.5173 7.90954C51.6709 7.09754 51.5066 6.28811 51.5174 5.47769C51.5183 5.35803 51.5328 5.18833 51.4662 5.13085C51.3276 5.01093 51.4965 4.92813 51.4573 4.82867C51.42 4.73427 51.4129 4.62856 51.394 4.52668C51.3729 4.4095 51.3228 4.28992 51.3393 4.17826C51.3694 3.96701 51.2354 3.78199 51.2749 3.55161C51.7969 3.44964 52.3565 3.59758 52.8957 3.35488C52.9469 3.50689 53.0178 3.63772 53.0328 3.77391C53.1082 4.4241 53.2006 5.0737 53.2032 5.73156C53.2055 6.38259 53.2521 7.03378 53.2613 7.68629C53.2645 7.87587 53.3356 8.06308 53.2083 8.26406C53.1133 8.41605 53.2346 8.62715 53.1398 8.83382C53.0576 9.01442 53.0902 9.26621 53.0623 9.48935C52.9897 10.0405 52.8449 10.5702 52.7037 11.1032C52.612 11.4499 52.4808 11.7843 52.3858 12.1311C52.3316 12.3312 52.0749 12.4325 52.1397 12.6814C51.9693 12.8173 51.9343 13.0321 51.8299 13.2084C51.5568 13.6674 51.2942 14.1345 50.8987 14.4987C50.94 14.7553 51.0708 14.9472 51.21 15.1338C51.4562 15.4636 51.7025 15.795 51.9669 16.1105C52.274 16.4775 52.578 16.8548 52.9261 17.181C53.3253 17.555 53.669 17.9993 54.1647 18.264C54.3442 18.6815 54.8023 18.7937 55.082 19.1086C55.2572 19.3059 55.5085 19.4389 55.7145 19.5924L55.7784 21.4205C55.5691 21.5149 55.3878 21.4375 55.2343 21.3284C54.882 21.0775 54.5443 20.8056 54.1984 20.546C54.0569 20.4381 53.9138 20.332 53.7657 20.2329C53.6299 20.142 53.5582 19.989 53.3727 19.9356C53.225 19.8947 53.1765 19.6759 53.0054 19.5981C52.8171 19.5141 52.7402 19.2588 52.5027 19.2277C52.4231 19.0442 52.3157 18.8908 52.1018 18.8521C51.7485 18.3295 51.2104 17.9706 50.8635 17.4359C50.7305 17.2303 50.4777 17.1042 50.424 16.8326C50.1684 16.8176 50.1189 16.5681 50.0013 16.4167C49.9105 16.2985 49.8791 16.1304 49.7592 16.0082C49.6323 15.881 49.5767 15.8488 49.4598 15.9588C49.1289 16.2728 48.7412 16.5171 48.3544 16.7408C47.986 16.9536 47.609 17.165 47.2079 17.3209C47.0736 17.3717 46.9277 17.4776 46.8061 17.4545C46.5596 17.4085 46.5136 17.6989 46.2907 17.6947C46.1102 17.6907 45.9304 17.7996 45.746 17.8299C45.2929 17.9056 44.8537 18.0422 44.4082 18.1415C43.8311 18.2711 43.2533 18.2861 42.6876 18.2563C42.0214 18.2215 41.3335 18.2455 40.6948 17.9773C40.3378 17.9829 40.033 17.7765 39.6897 17.7338C39.5889 17.7219 39.5215 17.6901 39.4529 17.6259C39.4212 17.5962 39.3826 17.56 39.3433 17.5562C39.1845 17.5378 39.0172 17.6172 38.8753 17.4512C38.7725 17.3318 38.5392 17.4202 38.4578 17.2317C38.0096 17.2063 37.6685 16.9362 37.3432 16.6793C37.1893 16.5582 36.9727 16.5897 36.8514 16.3786C36.7698 16.2345 36.5366 16.1811 36.3864 16.0684C36.2991 16.0014 36.24 15.8206 36.1703 15.8213C35.9833 15.8244 36.0366 15.6449 35.941 15.585C35.8384 15.5202 35.755 15.4223 35.6669 15.3348C35.5823 15.2489 35.6949 15.0655 35.5234 15.0236C35.4016 14.9937 35.3525 14.9031 35.2847 14.8115C35.2222 14.7282 35.0885 14.697 34.962 14.6314C34.7388 14.7656 34.485 14.8992 34.2492 15.0647C33.6898 15.4568 33.0659 15.7571 32.4309 15.9348C32.2961 15.972 32.1829 16.0905 32.0481 16.1259C31.6419 16.2324 31.2531 16.3981 30.8318 16.4589C30.6287 16.4882 30.4377 16.5701 30.2252 16.5741C30.0383 16.5789 29.8522 16.6555 29.6641 16.6757C29.4489 16.6986 29.2239 16.7338 29.0183 16.6897C28.8607 16.6559 28.7963 16.9077 28.6091 16.7587C28.5147 16.6834 28.3174 16.733 28.1677 16.7331C28.013 16.7334 27.8586 16.7439 27.704 16.7493C27.5494 16.7547 27.3923 16.7841 27.2418 16.762C26.6845 16.6807 26.1194 16.6184 25.587 16.4216C25.0908 16.2373 24.5727 16.1101 24.1247 15.7977C23.987 15.7016 23.7554 15.7439 23.609 15.5918C23.5401 15.5207 23.44 15.4781 23.3662 15.4106C23.0342 15.1077 22.5787 14.9698 22.2938 14.6038C21.9426 14.4828 21.786 14.09 21.43 13.976C21.2969 13.6235 20.8817 13.5184 20.7556 13.1229C20.6286 13.2845 20.5396 13.4158 20.433 13.5272C20.3755 13.5873 20.2863 13.6143 20.2131 13.6613C20.1699 13.6885 20.1062 13.7146 20.0939 13.7544C20.016 14.0066 19.8428 14.1613 19.6339 14.3156C19.4316 14.4645 19.2811 14.6834 19.0614 14.8209C18.7118 15.0365 18.4103 15.3153 18.0945 15.5759C17.9606 15.6865 17.7534 15.5963 17.6453 15.7642C17.5291 15.9442 17.3052 15.9127 17.1434 16.0038C17.1184 16.0167 17.0668 16.0014 17.0571 16.0171C16.8783 16.3019 16.5516 16.2962 16.2863 16.3944C16.1301 16.4528 15.9694 16.5746 15.7754 16.5216C15.741 16.5125 15.6909 16.5382 15.6543 16.56C15.3324 16.7438 14.7619 16.9159 14.4617 16.94C14.2107 16.9607 13.9497 16.8895 13.7121 17.0499C13.654 17.0896 13.5273 17.0666 13.4529 17.0299C13.3316 16.9675 13.2519 16.9737 13.1303 17.0463C12.9537 17.1516 12.7798 17.091 12.6562 16.9108C12.5598 16.9757 12.4687 17.0455 12.3719 17.0984C12.3352 17.1185 12.282 17.105 12.2344 17.1067C12.0901 17.1151 12.0189 16.8271 11.9042 16.9524C11.7321 17.1396 11.6389 16.9053 11.5005 16.934C11.389 16.9567 11.2489 16.8898 11.1331 16.8358C10.936 16.7436 10.7124 16.7719 10.5158 16.6437C10.4061 16.5724 10.2695 16.5549 10.1967 16.419C10.1749 16.3788 10.0955 16.3457 10.0446 16.3492C9.70198 16.3765 9.68544 16.3412 9.3902 16.2148C9.23481 16.1484 9.13739 15.9399 8.91507 16.0024C8.8797 16.0121 8.80641 15.9105 8.76192 15.8539C8.68899 15.7625 8.62263 15.664 8.56717 15.5856C8.4676 15.6078 8.38889 15.6431 8.31883 15.6335C8.27097 15.6267 8.20561 15.5572 8.19709 15.5079C8.12866 15.107 7.74768 15.1066 7.49371 14.9446C7.47285 14.9317 7.4325 14.945 7.39343 14.9464C7.28876 15.1637 7.30745 15.4552 7.00186 15.5685C6.91788 15.5987 6.90528 15.8709 6.83587 15.8802C6.63626 15.9111 6.74035 16.1159 6.60526 16.1924C6.50179 16.249 6.49446 16.4287 6.32504 16.4961C6.22941 16.5336 6.22568 16.7679 6.039 16.7796C5.93154 17.014 5.70984 17.1431 5.54436 17.3232C5.37887 17.5033 5.10964 17.5862 5.03576 17.8571C5.02828 17.8864 4.96474 17.9176 4.92737 17.9189C4.766 17.9246 4.71808 18.0134 4.65677 18.1574C4.58126 18.3326 4.39422 18.4314 4.21309 18.5044C4.15939 18.5251 4.05723 18.5218 4.05132 18.5477C3.98973 18.7805 3.72905 18.7674 3.61193 18.9202C3.48024 19.094 3.2586 19.1273 3.11043 19.2675C2.93749 19.4291 2.6851 19.4584 2.52924 19.6706C2.45947 19.7671 2.23253 19.7459 2.057 19.7845L1.9937 17.9718C3.76827 16.8708 5.23632 15.4182 6.38216 13.6026C6.1619 13.2856 5.99656 12.9342 5.79105 12.6013C5.62887 12.3403 5.49443 12.046 5.34191 11.7693C5.26016 11.6201 5.23188 11.4433 5.1701 11.2814C5.09893 11.0942 5.093 10.8757 4.91121 10.735C4.87622 10.7072 4.88859 10.623 4.8663 10.5691C4.67065 10.0804 4.66716 9.54216 4.46466 9.05193C4.36611 8.81099 4.34608 8.52971 4.33005 8.26538C4.31479 8.02324 4.1766 7.81616 4.20005 7.56241C4.2221 7.31726 4.19635 7.06694 4.17582 6.81986C4.16956 6.73805 4.10907 6.66155 4.07908 6.58227C4.05286 6.51312 4.22487 6.47123 4.09196 6.3665C3.97651 6.27483 4.29535 6.10305 4.0618 5.98987C4.27154 5.8595 3.91836 5.63258 4.30194 5.46367C4.6145 5.45275 5.08844 5.4362 5.56237 5.41965C5.71186 5.41443 5.80165 5.50187 5.79932 5.63013C5.79289 5.93284 5.83395 6.23218 5.79882 6.54102C5.76252 6.86528 5.851 7.2074 5.91013 7.53687C5.94586 7.73215 5.96952 7.72791 5.87413 7.96708C6.07487 8.06602 6.10351 8.25301 6.0904 8.46196C6.0828 8.58527 6.08551 8.71164 6.10339 8.83406C6.11868 8.93094 6.14956 9.03581 6.20678 9.11585C6.31055 9.26261 6.30941 9.425 6.31174 9.58898C6.31323 9.72906 6.33931 9.84265 6.45038 9.95498C6.54211 10.0492 6.57834 10.2103 6.61545 10.3474C6.70158 10.6708 6.75403 11.0039 6.99599 11.2604C6.9962 11.6073 7.33954 11.7474 7.45335 12.0356C7.56341 12.3138 7.73403 12.5727 7.9143 12.8159C8.12675 13.1042 8.37575 13.3672 8.63943 13.6126C8.74493 13.7115 8.90389 13.7828 8.87999 13.9751C8.87737 13.9974 8.91149 14.0492 8.91823 14.0472C9.19771 13.9657 9.26312 14.3291 9.50282 14.3259C9.56224 14.5665 9.8278 14.5247 9.96367 14.6652C10.1189 14.8256 10.3822 14.8164 10.5199 15.0098C10.8056 15.0067 10.9489 15.4101 11.2813 15.284C11.2913 15.2802 11.3354 15.3231 11.3344 15.3437C11.3297 15.5028 11.4636 15.4896 11.5218 15.4516C11.6915 15.3415 11.8086 15.4331 11.9291 15.5229C11.9972 15.5735 12.0305 15.6509 12.1373 15.5446C12.1883 15.495 12.3361 15.5377 12.4385 15.5495C12.5598 15.5641 12.6306 15.7393 12.8099 15.6151C12.8946 15.5575 13.0838 15.6654 13.2287 15.6757C13.3821 15.6857 13.6064 15.7292 13.6768 15.6498C13.811 15.4982 13.9322 15.7554 14.0629 15.6004C14.1363 15.5124 14.3612 15.5712 14.4777 15.4988C14.5942 15.4264 14.7076 15.6548 14.8165 15.4596C14.8549 15.3916 15.0321 15.3991 15.1452 15.3764C15.2769 15.3495 15.4088 15.3279 15.5592 15.2987C15.6145 15.1788 15.6567 15.0235 15.8727 15.0211C16.0291 15.0208 16.1906 14.969 16.3383 14.9126C16.4138 14.8826 16.4596 14.7819 16.5291 14.7282C16.597 14.6763 16.6934 14.6609 16.7526 14.6025C16.8907 14.4661 17.0192 14.3454 17.2211 14.2819C17.4566 14.2088 17.6567 14.0445 17.825 13.8473C17.9377 13.7152 18.0367 13.5801 18.2476 13.53C18.4348 13.4859 18.5582 13.268 18.6379 13.0686C18.8635 13.1001 18.9704 12.8964 19.0239 12.7732C19.1542 12.4627 19.3877 12.2324 19.5796 11.9796C19.7275 11.7848 19.7446 11.5432 19.9253 11.3609C20.0782 11.2086 20.1221 10.9558 20.1942 10.7328C20.2956 10.4217 20.4847 10.1382 20.5102 9.79725C20.6856 9.65783 20.5553 9.43338 20.6613 9.25365C20.7401 9.12273 20.7325 8.90766 20.7694 8.74403C20.8284 8.48562 20.8095 8.23848 20.8211 7.98515C20.8256 7.8722 20.8847 7.76076 20.8943 7.64764C20.9053 7.52421 20.8364 7.3523 20.8971 7.28695C20.9921 7.1828 20.8355 7.08402 20.9381 7.00183C20.9712 6.97504 20.9614 6.88993 20.961 6.83013C20.9677 6.09676 20.9847 5.36473 20.9744 4.63194C20.9637 3.88721 20.9326 3.14319 20.8964 2.39935C20.8854 2.17928 20.9587 1.94088 20.7901 1.73999C20.7617 1.7068 20.772 1.61074 20.8011 1.567C20.9107 1.39398 20.8795 1.23101 20.802 1.0594C20.7725 0.993783 20.7597 0.91733 20.7571 0.843934C20.7418 0.502677 20.7333 0.161183 20.7196 -0.180134C20.7127 -0.379838 20.7669 -0.53212 20.9536 -0.639469C21.0553 -0.697708 21.1226 -0.817974 21.2097 -0.904755C21.3363 -1.0288 21.4278 -1.03713 21.5575 -0.928864C21.6521 -0.84843 21.7385 -0.760872 21.8634 -0.643895L21.8713 -0.661261Z" fill="black"/>
</g>
<g clip-path="url(#clip3_6202_22274)">
<path d="M29.022 53.6069C33.0116 39.2982 49.6475 34.941 57.4667 34.5511C57.6625 40.1559 57.8173 51.6193 56.8708 52.6344C55.6876 53.9033 49.0525 59.7467 47.8325 59.9646C46.8566 60.139 40.2068 60.8739 37.0039 61.2196L2.85983 57.6771C1.49923 53.8666 -0.999232 44.5894 -0.108258 37.9645C21.5979 36.8558 18.9301 40.807 29.022 53.6069Z" fill="#318854"/>
<path d="M55.6447 35.2042C55.6269 35.7502 55.7682 36.2819 55.8288 36.8603C55.5062 36.8645 55.2118 36.9713 54.9071 36.8311C54.8287 36.7952 54.7209 36.8236 54.628 36.825C54.5159 36.8272 54.3977 36.8085 54.2954 36.8419C54.1758 36.8812 54.0987 36.733 53.9715 36.8059C53.8838 36.8545 53.7613 36.8623 53.6575 36.8537C53.4624 36.8394 53.2642 36.9393 53.0645 36.7937C52.9799 36.7318 52.8254 36.9774 52.6811 36.8141C52.5253 36.9704 52.3222 36.881 52.1426 36.9101C52.0049 36.9324 51.8086 36.8849 51.7358 36.9611C51.6055 37.0972 51.5046 36.9183 51.4312 36.977C51.2998 37.0798 51.1594 37.0268 51.025 37.0438C50.8993 37.0605 50.745 37.0115 50.6488 37.0692C50.4908 37.1642 50.371 37.1473 50.2013 37.1094C50.0882 37.0835 49.9386 37.2185 49.8057 37.281C49.683 37.1328 49.5581 37.2704 49.4593 37.3037C49.3379 37.343 49.2131 37.3333 49.092 37.3814C48.9657 37.4314 48.7844 37.3605 48.6761 37.424C48.3858 37.5972 48.0107 37.4524 47.7378 37.7215C47.6293 37.8288 47.3698 37.6783 47.2101 37.8259C46.8956 37.7579 46.6916 38.0421 46.3999 38.0751C46.1221 38.1059 45.8523 38.2135 45.5777 38.2845C45.5482 38.2925 45.495 38.2768 45.4868 38.2929C45.3281 38.5703 44.9697 38.4495 44.7769 38.6544C44.4433 38.5924 44.2482 38.9815 43.9096 38.9249C43.8708 38.9193 43.8211 39.0034 43.7715 39.0385C43.6996 39.0901 43.6282 39.1522 43.5449 39.1797C43.1931 39.2972 42.8677 39.4699 42.5327 39.6201C42.3342 39.7095 42.1714 39.8186 41.9966 39.9352C41.7258 40.1148 41.3658 40.1501 41.1657 40.4482C40.9093 40.4361 40.774 40.6793 40.5744 40.7389C40.354 40.8045 40.2284 40.9755 40.0403 41.0627C39.5658 41.2827 39.199 41.6761 38.7188 41.8857C38.6042 42.1686 38.2813 42.2131 38.096 42.4318C37.9292 42.627 37.6483 42.7175 37.4348 42.8793C37.2519 43.0172 37.1057 43.1977 36.9195 43.3392C36.6102 43.5727 36.3523 43.8693 36.0669 44.1353C35.9565 44.2374 35.7608 44.3073 35.7298 44.4242C35.6832 44.5959 35.5291 44.603 35.4658 44.6982C35.2009 45.095 34.7346 45.3007 34.5112 45.7346C34.4553 45.8418 34.289 45.8984 34.2507 46.0067C34.2026 46.1364 34.1525 46.2101 34.019 46.2516C33.9583 46.2712 33.9158 46.3604 33.8723 46.4215C33.8289 46.4827 33.8034 46.5572 33.7545 46.6115C33.6077 46.778 33.4741 46.9703 33.2943 47.0941C33.0974 47.229 33.1579 47.4566 33.0268 47.619C32.9074 47.7652 32.7505 47.8917 32.6784 48.0871C32.6128 48.2665 32.4868 48.4252 32.3766 48.5852C32.2548 48.7613 32.1114 48.9241 31.9931 49.1018C31.8865 49.2634 31.7961 49.4349 31.7056 49.6064C31.6365 49.7368 31.598 49.8908 31.5054 49.9992C31.3976 50.1275 31.4728 50.3721 31.2392 50.4118C31.2764 50.6245 31.1204 50.7755 31.0619 50.9582C31.0081 51.1249 30.8955 51.2656 30.8812 51.459C30.873 51.5768 30.7526 51.6932 30.6704 51.7996C30.5698 51.9311 30.3892 52.0338 30.5332 52.2392C30.4007 52.3614 30.3404 52.495 30.349 52.6911C30.3536 52.8225 30.2391 52.958 30.1861 53.0966C30.1426 53.2069 30.115 53.3201 30.075 53.4319C30.0382 53.5332 29.9441 53.6505 29.9697 53.7302C30.0093 53.8586 29.9033 53.936 29.9214 54.0546C29.9392 54.1627 29.8751 54.2842 29.8475 54.3991C29.82 54.5141 29.796 54.6307 29.7631 54.744C29.7428 54.8149 29.7248 54.9032 29.6736 54.9436C29.5627 55.0316 29.6467 55.076 29.6741 55.1575C29.7037 55.2512 29.6656 55.3665 29.65 55.4722C29.6415 55.5304 29.5998 55.5897 29.6087 55.6438C29.6651 56.0048 29.5025 56.27 29.2493 56.4998C29.2016 56.5418 29.1613 56.5924 29.1004 56.6576C29.0558 56.6346 29.0056 56.6031 28.9524 56.5856C28.4059 56.403 28.2301 56.3408 27.9003 55.8858C27.8432 55.8072 27.8249 55.785 27.8684 55.6748C27.9134 55.5574 27.9108 55.3839 27.8108 55.2296C27.6902 55.0409 27.828 54.7678 27.6547 54.5757C27.6317 54.1188 27.3881 53.7222 27.2939 53.2853C27.1136 53.1425 27.3302 52.8684 27.1117 52.7375C27.1094 52.4693 26.9151 52.2779 26.8366 52.0387C26.7798 51.8688 26.6712 51.7218 26.6818 51.525C26.6861 51.4459 26.6303 51.3549 26.5822 51.2829C26.3526 50.935 26.2128 50.5488 26.0556 50.165C25.9003 49.7846 25.674 49.4312 25.4497 49.0848C25.3664 48.958 25.2319 48.8732 25.2362 48.6942C25.238 48.6451 25.1868 48.5855 25.1467 48.543C24.9248 48.314 24.7338 48.0664 24.6336 47.7578C24.42 47.7196 24.4146 47.5129 24.3186 47.376C24.2244 47.239 24.123 47.0987 24 46.989C23.8136 46.8254 23.7575 46.5748 23.5521 46.4172C23.3648 46.2747 23.2713 46.0079 23.0824 45.8707C22.9348 45.7636 22.8571 45.5979 22.7103 45.5101C22.5418 45.4073 22.556 45.1595 22.3049 45.1016C22.1617 45.0681 22.0644 44.8417 21.949 44.7002C21.8812 44.6184 21.8186 44.5329 21.7561 44.4492C21.6899 44.362 21.6322 44.2659 21.4963 44.2916C21.4667 44.2979 21.4105 44.2946 21.4084 44.2859C21.3468 43.9777 20.9898 43.9989 20.8487 43.7741C20.7299 43.5854 20.5144 43.4912 20.3614 43.3299C20.2231 43.184 20.0033 43.118 19.8308 42.9995C19.6547 42.8776 19.5004 42.7269 19.3259 42.5998C19.1153 42.4458 18.8836 42.3399 18.6683 42.2001C18.6324 42.1768 18.5629 42.1933 18.5426 42.1659C18.3973 41.9711 18.2407 41.8064 17.9695 41.8229C17.8974 41.5659 17.5606 41.6653 17.4547 41.4428C17.4376 41.4048 17.3497 41.3991 17.293 41.3818C17.1954 41.3502 17.0862 41.3364 17.0002 41.2851C16.8176 41.1775 16.6607 41.0023 16.4676 40.9459C16.2692 40.8897 16.1119 40.804 15.9466 40.6906C15.8441 40.6187 15.6933 40.6187 15.5657 40.5811C15.4949 40.5608 15.4222 40.5388 15.3613 40.5006C15.0976 40.3309 14.7672 40.3109 14.5178 40.1004C14.4275 40.0246 14.2615 40.0427 14.1339 40.0033C13.7812 39.8964 13.4349 39.7717 13.0807 39.6718C12.668 39.5564 12.2417 39.4994 11.8572 39.2849C11.732 39.2156 11.546 39.3641 11.4113 39.2215C11.0095 39.2671 10.6577 38.9848 10.2512 39.0446C10.1989 39.0517 10.1396 39.0134 10.0812 38.9979C9.84772 38.9394 9.62155 38.8404 9.3688 38.8843C9.29736 38.8973 9.21111 38.888 9.1452 38.8588C9.00626 38.797 8.89101 38.7607 8.71696 38.7983C8.52552 38.8401 8.28874 38.7887 8.10347 38.7057C7.97341 38.6472 7.86199 38.6703 7.74409 38.6587C7.61036 38.6458 7.45699 38.7231 7.35014 38.576C7.26135 38.6948 7.16333 38.7 7.023 38.6488C6.89862 38.6023 6.75325 38.6073 6.61633 38.6034C6.48992 38.599 6.35283 38.6406 6.23764 38.6061C6.13658 38.5745 6.07377 38.5837 5.97667 38.6152C5.86392 38.6507 5.70466 38.6597 5.61325 38.6033C5.50209 38.5335 5.40275 38.551 5.29941 38.5547C4.56717 38.5767 3.83517 38.6058 3.10292 38.6278C2.9628 38.6327 2.82794 38.6374 2.71571 38.7378C2.57819 38.6164 2.45394 38.7242 2.31606 38.743C1.7628 38.8184 1.20662 38.8607 0.633355 38.9158L0.574149 37.2203C0.657241 37.1893 0.751738 37.1334 0.851267 37.1212C0.9421 37.111 1.04051 37.1672 1.12959 37.1571C1.22918 37.1466 1.32439 37.0608 1.42091 37.0627C2.06493 37.0753 2.68741 36.8729 3.33499 36.8871C3.98608 36.9012 4.63973 36.8381 5.29189 36.8328C5.54961 36.8308 5.82261 36.7143 6.06742 36.8952C6.24195 36.7207 6.42985 36.879 6.60875 36.8798C7.13843 36.8823 7.67402 36.8531 8.19401 36.9297C8.8162 37.0202 9.46044 36.9889 10.0596 37.224C10.4614 37.1802 10.8322 37.3531 11.2231 37.3991C11.7197 37.4589 12.2058 37.6173 12.6941 37.7405C13.2089 37.8698 13.7238 38.0009 14.2087 38.2277C14.4728 38.108 14.6143 38.3942 14.8467 38.4194C15.0579 38.4419 15.2555 38.577 15.4617 38.6557C15.7087 38.7506 15.9541 38.8981 16.2072 38.9138C16.4058 38.9261 16.4632 39.1644 16.6594 39.1084C16.9241 39.3061 17.2888 39.3039 17.5292 39.5603C17.6604 39.7013 17.8737 39.7342 18.0448 39.8124C18.6687 40.101 19.2613 40.4485 19.8285 40.8251C20.3096 41.1432 20.8529 41.3855 21.2456 41.833C22.0563 42.3501 22.7358 43.0261 23.4252 43.6859C23.8371 44.0819 24.2406 44.4904 24.5881 44.9483C24.6157 44.9859 24.6604 45.0106 24.6914 45.0464C24.8302 45.2046 25.0126 45.3035 25.0688 45.5575C25.1085 45.7403 25.3398 45.8848 25.4853 46.034C25.7872 46.3444 25.9724 46.7272 26.2314 47.0619C26.6316 47.5758 26.9291 48.1616 27.2454 48.731C27.4232 49.0527 27.6405 49.3503 27.7721 49.7034C27.9153 50.0878 28.1399 50.4429 28.2727 50.8311C28.3782 51.1396 28.5839 51.4077 28.615 51.7451C28.6184 51.7923 28.7022 51.8332 28.7656 51.8906C28.8666 51.6696 28.9715 51.4573 29.0603 51.2385C29.1152 51.1033 29.1009 50.8951 29.195 50.8287C29.3541 50.7144 29.2078 50.5424 29.3441 50.4289C29.4463 50.3429 29.4789 50.1717 29.5409 50.038C29.8118 49.4586 30.1434 48.9122 30.4536 48.3524C30.8281 47.6782 31.2584 47.0442 31.7047 46.4166C32.0189 45.9742 32.3423 45.5438 32.7125 45.1451C32.9338 44.9058 33.1099 44.6261 33.335 44.392C33.8544 43.8478 34.3627 43.2882 34.9276 42.795C35.4552 42.3364 35.9094 41.7839 36.5394 41.4445C36.8926 41.013 37.4074 40.7916 37.8323 40.4524C38.8133 39.6711 39.9056 39.063 40.9943 38.4515C41.3021 38.2777 41.606 38.0917 41.9309 37.9541C42.1331 37.8681 42.2961 37.6643 42.554 37.7202C42.5841 37.7261 42.6279 37.6755 42.6638 37.6497C43.1173 37.327 43.6642 37.2219 44.1634 37.0028C44.5692 36.8238 44.9904 36.6828 45.4174 36.5575C45.6934 36.4759 45.9795 36.3835 46.2525 36.2653C46.5099 36.1546 46.824 36.1594 47.063 36.0248C47.3176 35.8826 47.5936 35.9536 47.8527 35.8394C48.072 35.7423 48.3371 35.6506 48.6137 35.6883C48.7195 35.7021 48.8375 35.6173 48.9523 35.5905C49.5055 35.4642 50.0677 35.3937 50.6298 35.3197C51.1098 35.2556 51.5886 35.2056 52.0689 35.2011C52.1951 35.2002 52.273 34.9678 52.4388 35.1478C52.4753 35.1869 52.6501 35.0721 52.7574 35.0806C52.8946 35.0916 53.0023 35.1632 53.1659 35.0769C53.2812 35.015 53.4814 35.1237 53.6466 35.1355C53.8048 35.1457 53.9655 35.1261 54.1232 35.1223C54.6207 35.1085 55.12 35.0437 55.6482 35.2059L55.6447 35.2042Z" fill="black"/>
</g>
</g>
<rect x="0.578044" y="2.33843" width="52.7519" height="52.7526" rx="14.0205" transform="rotate(-2 0.578044 2.33843)" stroke="black" stroke-width="1.75257"/>
<defs>
<clipPath id="clip0_6202_22274">
<rect x="1.48438" y="3.18359" width="50.9993" height="51" rx="13.1442" transform="rotate(-2 1.48438 3.18359)" fill="white"/>
</clipPath>
<clipPath id="clip1_6202_22274">
<rect width="14.5357" height="11.7756" fill="white" transform="translate(20.5586 22.1562) rotate(-2)"/>
</clipPath>
<clipPath id="clip2_6202_22274">
<rect width="53.6282" height="23.6598" fill="white" transform="translate(1.36328 -0.320312) rotate(-2)"/>
</clipPath>
<clipPath id="clip3_6202_22274">
<rect width="55.237" height="20.754" fill="white" transform="translate(0.558594 36.8867) rotate(-2)"/>
</clipPath>
</defs>
</svg>
